<?xml version="1.0" encoding="UTF-8" standalone="no"?>
<!-- Created with Inkscape (http://www.inkscape.org/) -->

<svg
   version="1.1"
   id="svg2"
   xml:space="preserve"
   width="1074.0836"
   height="690.82452"
   viewBox="0 0 1074.0837 690.82452"
   sodipodi:docname="e2_21.svg"
   inkscape:version="1.1 (c68e22c387, 2021-05-23)"
   xmlns:inkscape="http://www.inkscape.org/namespaces/inkscape"
   xmlns:sodipodi="http://sodipodi.sourceforge.net/DTD/sodipodi-0.dtd"
   xmlns="http://www.w3.org/2000/svg"
   xmlns:svg="http://www.w3.org/2000/svg"><defs
     id="defs6"><clipPath
       clipPathUnits="userSpaceOnUse"
       id="clipPath16"><path
         d="M 0,0 H 3362.5 V 2164.8152 H 0 Z"
         clip-rule="evenodd"
         id="path14" /></clipPath><clipPath
       clipPathUnits="userSpaceOnUse"
       id="clipPath28"><path
         d="M 0,0 H 3362.5 V 2161.821 H 0 Z"
         clip-rule="evenodd"
         id="path26" /></clipPath></defs><sodipodi:namedview
     id="namedview4"
     pagecolor="#ffffff"
     bordercolor="#999999"
     borderopacity="1"
     inkscape:pageshadow="0"
     inkscape:pageopacity="0"
     inkscape:pagecheckerboard="0"
     showgrid="false"
     inkscape:zoom="0.90509668"
     inkscape:cx="535.85436"
     inkscape:cy="330.90388"
     inkscape:window-width="1920"
     inkscape:window-height="1009"
     inkscape:window-x="-8"
     inkscape:window-y="-8"
     inkscape:window-maximized="1"
     inkscape:current-layer="g8" /><g
     id="g8"
     inkscape:groupmode="layer"
     inkscape:label="tree_game"
     transform="matrix(0.31999998,0,0,0.31999998,-0.47907387,-0.47907387)"><g
       id="g30"
       transform="scale(2.9942119)"><path
         d="m 781,81 v 71.75999"
         style="fill:none;stroke:#000000;stroke-width:1;stroke-linecap:butt;stroke-linejoin:miter;stroke-miterlimit:10;stroke-dasharray:none;stroke-opacity:1"
         id="path32" /><path
         d="m 781,158.75999 -4,-8 4,2 4,-2 z"
         style="fill:#000000;fill-opacity:1;fill-rule:nonzero;stroke:none"
         id="path34" /><path
         d="m 781,158.75999 -4,-8 4,2 4,-2 z"
         style="fill:none;stroke:#000000;stroke-width:1;stroke-linecap:butt;stroke-linejoin:miter;stroke-miterlimit:10;stroke-dasharray:none;stroke-opacity:1"
         id="path36" /><path
         d="m 811,81 v 40 h 250 v 31.75999"
         style="fill:none;stroke:#000000;stroke-width:1;stroke-linecap:butt;stroke-linejoin:miter;stroke-miterlimit:10;stroke-dasharray:none;stroke-opacity:1"
         id="path38" /><path
         d="m 1061,158.75999 -4,-8 4,2 4,-2 z"
         style="fill:#000000;fill-opacity:1;fill-rule:nonzero;stroke:none"
         id="path40" /><path
         d="m 1061,158.75999 -4,-8 4,2 4,-2 z"
         style="fill:none;stroke:#000000;stroke-width:1;stroke-linecap:butt;stroke-linejoin:miter;stroke-miterlimit:10;stroke-dasharray:none;stroke-opacity:1"
         id="path42" /><path
         d="m 751,81 v 40 H 381 v 31.75999"
         style="fill:none;stroke:#000000;stroke-width:1;stroke-linecap:butt;stroke-linejoin:miter;stroke-miterlimit:10;stroke-dasharray:none;stroke-opacity:1"
         id="path44" /><path
         d="m 381,158.75999 -4,-8 4,2 4,-2 z"
         style="fill:#000000;fill-opacity:1;fill-rule:nonzero;stroke:none"
         id="path46" /><path
         d="m 381,158.75999 -4,-8 4,2 4,-2 z"
         style="fill:none;stroke:#000000;stroke-width:1;stroke-linecap:butt;stroke-linejoin:miter;stroke-miterlimit:10;stroke-dasharray:none;stroke-opacity:1"
         id="path48" /><path
         d="m 733,1 h 96 c 0.7879,0 1.56824,0.076859 2.341,0.2305766 0.77277,0.1537177 1.52314,0.3813407 2.2511,0.6828688 0.72797,0.301528 1.4195,0.6711679 2.07465,1.108919 0.65509,0.437751 1.26129,0.9352021 1.81848,1.4923537 0.55707,0.5571513 1.0545,1.1632976 1.49231,1.818438 0.43774,0.6551409 0.80737,1.3466883 1.10895,2.0746417 0.30151,0.7279539 0.52917,1.4783259 0.68292,2.2511172 C 840.9231,11.431707 840.99994,12.212069 841,13 v 56 c -6e-5,0.787926 -0.0769,1.568283 -0.23065,2.341072 -0.15375,0.772789 -0.38135,1.523163 -0.68286,2.251114 -0.30158,0.727959 -0.67121,1.41951 -1.10889,2.074654 -0.43781,0.655136 -0.9353,1.261283 -1.49237,1.818435 -0.55719,0.557152 -1.16339,1.054604 -1.81848,1.492356 -0.65515,0.437751 -1.34668,0.807388 -2.07465,1.108909 -0.72796,0.301529 -1.47833,0.529152 -2.2511,0.682869 C 830.56824,80.923134 829.7879,81 829,81 h -96 c -0.78796,0 -1.56836,-0.07687 -2.34113,-0.230591 -0.77282,-0.153717 -1.52319,-0.38134 -2.25116,-0.682869 -0.72796,-0.301521 -1.41955,-0.671165 -2.07464,-1.108917 -0.65515,-0.437752 -1.26129,-0.935196 -1.81842,-1.492348 -0.55713,-0.557152 -1.05457,-1.163299 -1.49231,-1.818435 -0.43781,-0.655144 -0.80744,-1.346695 -1.10895,-2.074654 -0.30151,-0.727951 -0.52911,-1.478325 -0.68286,-2.251114 C 721.07684,70.568283 721,69.787926 721,69 V 13 c 0,-0.787931 0.0768,-1.568293 0.23053,-2.341085 0.15375,-0.7727913 0.38135,-1.5231633 0.68286,-2.2511172 0.30151,-0.7279534 0.67114,-1.4195008 1.10895,-2.0746417 0.43774,-0.6551404 0.93518,-1.2612867 1.49231,-1.818438 0.55713,-0.5571516 1.16327,-1.0546027 1.81842,-1.4923537 0.65509,-0.4377511 1.34668,-0.807391 2.07464,-1.108919 0.72797,-0.3015281 1.47834,-0.5291511 2.25116,-0.6828688 C 731.43164,1.0768589 732.21204,1 733,1 Z"
         style="fill:#ffffff;fill-opacity:1;fill-rule:nonzero;stroke:none"
         id="path50" /><path
         d="m 733,1 h 96 c 0.7879,0 1.56824,0.076859 2.341,0.2305766 0.77277,0.1537177 1.52314,0.3813407 2.2511,0.6828688 0.72797,0.301528 1.4195,0.6711679 2.07465,1.108919 0.65509,0.437751 1.26129,0.9352021 1.81848,1.4923537 0.55707,0.5571513 1.0545,1.1632976 1.49231,1.818438 0.43774,0.6551409 0.80737,1.3466883 1.10895,2.0746417 0.30151,0.7279539 0.52917,1.4783259 0.68292,2.2511172 C 840.9231,11.431707 840.99994,12.212069 841,13 v 56 c -6e-5,0.787926 -0.0769,1.568283 -0.23065,2.341072 -0.15375,0.772789 -0.38135,1.523163 -0.68286,2.251114 -0.30158,0.727959 -0.67121,1.41951 -1.10889,2.074654 -0.43781,0.655136 -0.9353,1.261283 -1.49237,1.818435 -0.55719,0.557152 -1.16339,1.054604 -1.81848,1.492356 -0.65515,0.437751 -1.34668,0.807388 -2.07465,1.108909 -0.72796,0.301529 -1.47833,0.529152 -2.2511,0.682869 C 830.56824,80.923134 829.7879,81 829,81 h -96 c -0.78796,0 -1.56836,-0.07687 -2.34113,-0.230591 -0.77282,-0.153717 -1.52319,-0.38134 -2.25116,-0.682869 -0.72796,-0.301521 -1.41955,-0.671165 -2.07464,-1.108917 -0.65515,-0.437752 -1.26129,-0.935196 -1.81842,-1.492348 -0.55713,-0.557152 -1.05457,-1.163299 -1.49231,-1.818435 -0.43781,-0.655144 -0.80744,-1.346695 -1.10895,-2.074654 -0.30151,-0.727951 -0.52911,-1.478325 -0.68286,-2.251114 C 721.07684,70.568283 721,69.787926 721,69 V 13 c 0,-0.787931 0.0768,-1.568293 0.23053,-2.341085 0.15375,-0.7727913 0.38135,-1.5231633 0.68286,-2.2511172 0.30151,-0.7279534 0.67114,-1.4195008 1.10895,-2.0746417 0.43774,-0.6551404 0.93518,-1.2612867 1.49231,-1.818438 0.55713,-0.5571516 1.16327,-1.0546027 1.81842,-1.4923537 0.65509,-0.4377511 1.34668,-0.807391 2.07464,-1.108919 0.72797,-0.3015281 1.47834,-0.5291511 2.25116,-0.6828688 C 731.43164,1.0768589 732.21204,1 733,1 Z"
         style="fill:none;stroke:#000000;stroke-width:1;stroke-linecap:butt;stroke-linejoin:miter;stroke-miterlimit:10;stroke-dasharray:none;stroke-opacity:1"
         id="path52" /></g><g
       id="g60"
       transform="scale(2.9942119)"><path
         d="m 411,241 v 40 h 130 v 31.76001"
         style="fill:none;stroke:#000000;stroke-width:1;stroke-linecap:butt;stroke-linejoin:miter;stroke-miterlimit:10;stroke-dasharray:none;stroke-opacity:1"
         id="path62" /><path
         d="m 541,318.76001 -4,-8 4,2 4,-2 z"
         style="fill:#000000;fill-opacity:1;fill-rule:nonzero;stroke:none"
         id="path64" /><path
         d="m 541,318.76001 -4,-8 4,2 4,-2 z"
         style="fill:none;stroke:#000000;stroke-width:1;stroke-linecap:butt;stroke-linejoin:miter;stroke-miterlimit:10;stroke-dasharray:none;stroke-opacity:1"
         id="path66" /><path
         d="m 381,241 v 71.76001"
         style="fill:none;stroke:#000000;stroke-width:1;stroke-linecap:butt;stroke-linejoin:miter;stroke-miterlimit:10;stroke-dasharray:none;stroke-opacity:1"
         id="path68" /><path
         d="m 381,318.76001 -4,-8 4,2 4,-2 z"
         style="fill:#000000;fill-opacity:1;fill-rule:nonzero;stroke:none"
         id="path70" /><path
         d="m 381,318.76001 -4,-8 4,2 4,-2 z"
         style="fill:none;stroke:#000000;stroke-width:1;stroke-linecap:butt;stroke-linejoin:miter;stroke-miterlimit:10;stroke-dasharray:none;stroke-opacity:1"
         id="path72" /><path
         d="m 351,241 v 40 H 221 v 31.76001"
         style="fill:none;stroke:#000000;stroke-width:1;stroke-linecap:butt;stroke-linejoin:miter;stroke-miterlimit:10;stroke-dasharray:none;stroke-opacity:1"
         id="path74" /><path
         d="m 221,318.76001 -4,-8 4,2 4,-2 z"
         style="fill:#000000;fill-opacity:1;fill-rule:nonzero;stroke:none"
         id="path76" /><path
         d="m 221,318.76001 -4,-8 4,2 4,-2 z"
         style="fill:none;stroke:#000000;stroke-width:1;stroke-linecap:butt;stroke-linejoin:miter;stroke-miterlimit:10;stroke-dasharray:none;stroke-opacity:1"
         id="path78" /><path
         d="m 333,161 h 96 c 0.7879,0 1.56824,0.0769 2.34103,0.23058 0.7728,0.1537 1.52317,0.38131 2.25113,0.68284 0.72794,0.30153 1.4195,0.67117 2.07462,1.10892 0.65515,0.43776 1.26132,0.93521 1.81848,1.49235 0.55713,0.55715 1.05457,1.1633 1.49234,1.81845 0.43774,0.65514 0.80737,1.34668 1.10889,2.07464 0.30154,0.72796 0.52917,1.47833 0.68289,2.25111 0.15372,0.77281 0.23059,1.55318 0.23062,2.34111 v 56 c -3e-5,0.78792 -0.0769,1.56827 -0.23065,2.34105 -0.15372,0.77278 -0.38132,1.52315 -0.68286,2.2511 -0.30152,0.72795 -0.67115,1.41951 -1.10892,2.07466 -0.43774,0.65514 -0.93518,1.26129 -1.49231,1.81845 -0.55716,0.55714 -1.16333,1.0546 -1.81845,1.49236 -0.65515,0.43772 -1.34671,0.80737 -2.07465,1.1089 -0.72796,0.30153 -1.47833,0.52916 -2.2511,0.68289 C 430.56827,240.92314 429.7879,241 429,241 h -96 c -0.78793,0 -1.5683,-0.0769 -2.34109,-0.23058 -0.7728,-0.15373 -1.5232,-0.38137 -2.25116,-0.6829 -0.72797,-0.30153 -1.41953,-0.67118 -2.07465,-1.10894 -0.65512,-0.43774 -1.26126,-0.93518 -1.81842,-1.49232 -0.55716,-0.55716 -1.05463,-1.16331 -1.49234,-1.81845 -0.43778,-0.65514 -0.8074,-1.3467 -1.10895,-2.07465 -0.30151,-0.72795 -0.52911,-1.47833 -0.68283,-2.25111 C 321.07684,230.56827 320.99997,229.78792 321,229 v -56 c -3e-5,-0.78793 0.0768,-1.5683 0.23056,-2.34111 0.15372,-0.77278 0.38132,-1.52315 0.68283,-2.25111 0.30155,-0.72796 0.67117,-1.4195 1.10892,-2.07464 0.43774,-0.65515 0.93521,-1.2613 1.49237,-1.81845 0.55716,-0.55714 1.1633,-1.05459 1.81842,-1.49234 0.65512,-0.43776 1.34668,-0.8074 2.07465,-1.10893 0.72796,-0.30153 1.47836,-0.52914 2.25116,-0.68284 C 331.4317,161.07686 332.21207,161 333,161 Z"
         style="fill:#ffffff;fill-opacity:1;fill-rule:nonzero;stroke:none"
         id="path80" /><path
         d="m 333,161 h 96 c 0.7879,0 1.56824,0.0769 2.34103,0.23058 0.7728,0.1537 1.52317,0.38131 2.25113,0.68284 0.72794,0.30153 1.4195,0.67117 2.07462,1.10892 0.65515,0.43776 1.26132,0.93521 1.81848,1.49235 0.55713,0.55715 1.05457,1.1633 1.49234,1.81845 0.43774,0.65514 0.80737,1.34668 1.10889,2.07464 0.30154,0.72796 0.52917,1.47833 0.68289,2.25111 0.15372,0.77281 0.23059,1.55318 0.23062,2.34111 v 56 c -3e-5,0.78792 -0.0769,1.56827 -0.23065,2.34105 -0.15372,0.77278 -0.38132,1.52315 -0.68286,2.2511 -0.30152,0.72795 -0.67115,1.41951 -1.10892,2.07466 -0.43774,0.65514 -0.93518,1.26129 -1.49231,1.81845 -0.55716,0.55714 -1.16333,1.0546 -1.81845,1.49236 -0.65515,0.43772 -1.34671,0.80737 -2.07465,1.1089 -0.72796,0.30153 -1.47833,0.52916 -2.2511,0.68289 C 430.56827,240.92314 429.7879,241 429,241 h -96 c -0.78793,0 -1.5683,-0.0769 -2.34109,-0.23058 -0.7728,-0.15373 -1.5232,-0.38137 -2.25116,-0.6829 -0.72797,-0.30153 -1.41953,-0.67118 -2.07465,-1.10894 -0.65512,-0.43774 -1.26126,-0.93518 -1.81842,-1.49232 -0.55716,-0.55716 -1.05463,-1.16331 -1.49234,-1.81845 -0.43778,-0.65514 -0.8074,-1.3467 -1.10895,-2.07465 -0.30151,-0.72795 -0.52911,-1.47833 -0.68283,-2.25111 C 321.07684,230.56827 320.99997,229.78792 321,229 v -56 c -3e-5,-0.78793 0.0768,-1.5683 0.23056,-2.34111 0.15372,-0.77278 0.38132,-1.52315 0.68283,-2.25111 0.30155,-0.72796 0.67117,-1.4195 1.10892,-2.07464 0.43774,-0.65515 0.93521,-1.2613 1.49237,-1.81845 0.55716,-0.55714 1.1633,-1.05459 1.81842,-1.49234 0.65512,-0.43776 1.34668,-0.8074 2.07465,-1.10893 0.72796,-0.30153 1.47836,-0.52914 2.25116,-0.68284 C 331.4317,161.07686 332.21207,161 333,161 Z"
         style="fill:none;stroke:#000000;stroke-width:1;stroke-linecap:butt;stroke-linejoin:miter;stroke-miterlimit:10;stroke-dasharray:none;stroke-opacity:1"
         id="path82" /></g><g
       id="g90"
       transform="scale(2.9942119)"><path
         d="m 811,241 v 40 h 50 v 31.76001"
         style="fill:none;stroke:#000000;stroke-width:1;stroke-linecap:butt;stroke-linejoin:miter;stroke-miterlimit:10;stroke-dasharray:none;stroke-opacity:1"
         id="path92" /><path
         d="m 861,318.76001 -4,-8 4,2 4,-2 z"
         style="fill:#000000;fill-opacity:1;fill-rule:nonzero;stroke:none"
         id="path94" /><path
         d="m 861,318.76001 -4,-8 4,2 4,-2 z"
         style="fill:none;stroke:#000000;stroke-width:1;stroke-linecap:butt;stroke-linejoin:miter;stroke-miterlimit:10;stroke-dasharray:none;stroke-opacity:1"
         id="path96" /><path
         d="m 751,241 v 40 h -50 v 31.76001"
         style="fill:none;stroke:#000000;stroke-width:1;stroke-linecap:butt;stroke-linejoin:miter;stroke-miterlimit:10;stroke-dasharray:none;stroke-opacity:1"
         id="path98" /><path
         d="m 701,318.76001 -4,-8 4,2 4,-2 z"
         style="fill:#000000;fill-opacity:1;fill-rule:nonzero;stroke:none"
         id="path100" /><path
         d="m 701,318.76001 -4,-8 4,2 4,-2 z"
         style="fill:none;stroke:#000000;stroke-width:1;stroke-linecap:butt;stroke-linejoin:miter;stroke-miterlimit:10;stroke-dasharray:none;stroke-opacity:1"
         id="path102" /><path
         d="m 733,161 h 96 c 0.7879,0 1.56824,0.0769 2.341,0.23058 0.77277,0.1537 1.52314,0.38131 2.2511,0.68284 0.72797,0.30153 1.4195,0.67117 2.07465,1.10892 0.65509,0.43776 1.26129,0.93521 1.81848,1.49235 0.55707,0.55715 1.0545,1.1633 1.49231,1.81845 0.43774,0.65514 0.80737,1.34668 1.10895,2.07464 0.30151,0.72796 0.52917,1.47833 0.68292,2.25111 0.15369,0.77281 0.23053,1.55318 0.23059,2.34111 v 56 c -6e-5,0.78792 -0.0769,1.56827 -0.23065,2.34105 -0.15375,0.77278 -0.38135,1.52315 -0.68286,2.2511 -0.30158,0.72795 -0.67121,1.41951 -1.10889,2.07466 -0.43781,0.65514 -0.9353,1.26129 -1.49237,1.81845 -0.55719,0.55714 -1.16339,1.0546 -1.81848,1.49236 -0.65515,0.43772 -1.34668,0.80737 -2.07465,1.1089 -0.72796,0.30153 -1.47833,0.52916 -2.2511,0.68289 C 830.56824,240.92314 829.7879,241 829,241 h -96 c -0.78796,0 -1.56836,-0.0769 -2.34113,-0.23058 -0.77282,-0.15373 -1.52319,-0.38137 -2.25116,-0.6829 -0.72796,-0.30153 -1.41955,-0.67118 -2.07464,-1.10894 -0.65515,-0.43774 -1.26129,-0.93518 -1.81842,-1.49232 -0.55713,-0.55716 -1.05457,-1.16331 -1.49231,-1.81845 -0.43781,-0.65514 -0.80744,-1.3467 -1.10895,-2.07465 -0.30151,-0.72795 -0.52911,-1.47833 -0.68286,-2.25111 C 721.07684,230.56827 721,229.78792 721,229 v -56 c 0,-0.78793 0.0768,-1.5683 0.23053,-2.34111 0.15375,-0.77278 0.38135,-1.52315 0.68286,-2.25111 0.30151,-0.72796 0.67114,-1.4195 1.10895,-2.07464 0.43774,-0.65515 0.93518,-1.2613 1.49231,-1.81845 0.55713,-0.55714 1.16327,-1.05459 1.81842,-1.49234 0.65509,-0.43776 1.34668,-0.8074 2.07464,-1.10893 0.72797,-0.30153 1.47834,-0.52914 2.25116,-0.68284 C 731.43164,161.07686 732.21204,161 733,161 Z"
         style="fill:#ffffff;fill-opacity:1;fill-rule:nonzero;stroke:none"
         id="path104" /><path
         d="m 733,161 h 96 c 0.7879,0 1.56824,0.0769 2.341,0.23058 0.77277,0.1537 1.52314,0.38131 2.2511,0.68284 0.72797,0.30153 1.4195,0.67117 2.07465,1.10892 0.65509,0.43776 1.26129,0.93521 1.81848,1.49235 0.55707,0.55715 1.0545,1.1633 1.49231,1.81845 0.43774,0.65514 0.80737,1.34668 1.10895,2.07464 0.30151,0.72796 0.52917,1.47833 0.68292,2.25111 0.15369,0.77281 0.23053,1.55318 0.23059,2.34111 v 56 c -6e-5,0.78792 -0.0769,1.56827 -0.23065,2.34105 -0.15375,0.77278 -0.38135,1.52315 -0.68286,2.2511 -0.30158,0.72795 -0.67121,1.41951 -1.10889,2.07466 -0.43781,0.65514 -0.9353,1.26129 -1.49237,1.81845 -0.55719,0.55714 -1.16339,1.0546 -1.81848,1.49236 -0.65515,0.43772 -1.34668,0.80737 -2.07465,1.1089 -0.72796,0.30153 -1.47833,0.52916 -2.2511,0.68289 C 830.56824,240.92314 829.7879,241 829,241 h -96 c -0.78796,0 -1.56836,-0.0769 -2.34113,-0.23058 -0.77282,-0.15373 -1.52319,-0.38137 -2.25116,-0.6829 -0.72796,-0.30153 -1.41955,-0.67118 -2.07464,-1.10894 -0.65515,-0.43774 -1.26129,-0.93518 -1.81842,-1.49232 -0.55713,-0.55716 -1.05457,-1.16331 -1.49231,-1.81845 -0.43781,-0.65514 -0.80744,-1.3467 -1.10895,-2.07465 -0.30151,-0.72795 -0.52911,-1.47833 -0.68286,-2.25111 C 721.07684,230.56827 721,229.78792 721,229 v -56 c 0,-0.78793 0.0768,-1.5683 0.23053,-2.34111 0.15375,-0.77278 0.38135,-1.52315 0.68286,-2.25111 0.30151,-0.72796 0.67114,-1.4195 1.10895,-2.07464 0.43774,-0.65515 0.93518,-1.2613 1.49231,-1.81845 0.55713,-0.55714 1.16327,-1.05459 1.81842,-1.49234 0.65509,-0.43776 1.34668,-0.8074 2.07464,-1.10893 0.72797,-0.30153 1.47834,-0.52914 2.25116,-0.68284 C 731.43164,161.07686 732.21204,161 733,161 Z"
         style="fill:none;stroke:#000000;stroke-width:1;stroke-linecap:butt;stroke-linejoin:miter;stroke-miterlimit:10;stroke-dasharray:none;stroke-opacity:1"
         id="path106" /></g><g
       id="g114"
       transform="scale(2.9942119)"><path
         d="m 1061,241 v 71.76001"
         style="fill:none;stroke:#000000;stroke-width:1;stroke-linecap:butt;stroke-linejoin:miter;stroke-miterlimit:10;stroke-dasharray:none;stroke-opacity:1"
         id="path116" /><path
         d="m 1061,318.76001 -4,-8 4,2 4,-2 z"
         style="fill:#000000;fill-opacity:1;fill-rule:nonzero;stroke:none"
         id="path118" /><path
         d="m 1061,318.76001 -4,-8 4,2 4,-2 z"
         style="fill:none;stroke:#000000;stroke-width:1;stroke-linecap:butt;stroke-linejoin:miter;stroke-miterlimit:10;stroke-dasharray:none;stroke-opacity:1"
         id="path120" /><path
         d="m 1013,161 h 96 c 0.788,0 1.5682,0.0769 2.3411,0.23058 0.7727,0.1537 1.523,0.38131 2.2509,0.68284 0.728,0.30153 1.4196,0.67117 2.0748,1.10892 0.6551,0.43776 1.2612,0.93521 1.8184,1.49235 0.5573,0.55715 1.0547,1.1633 1.4923,1.81845 0.4378,0.65514 0.8074,1.34668 1.1089,2.07464 0.3015,0.72796 0.5292,1.47833 0.6829,2.25111 0.1537,0.77281 0.2306,1.55318 0.2307,2.34111 v 56 c -10e-5,0.78792 -0.077,1.56827 -0.2307,2.34105 -0.1537,0.77278 -0.3814,1.52315 -0.6829,2.2511 -0.3015,0.72795 -0.6711,1.41951 -1.1089,2.07466 -0.4376,0.65514 -0.935,1.26129 -1.4923,1.81845 -0.5572,0.55714 -1.1633,1.0546 -1.8183,1.49236 -0.6553,0.43772 -1.3469,0.80737 -2.0749,1.1089 -0.7279,0.30153 -1.4782,0.52916 -2.2509,0.68289 C 1110.5682,240.92314 1109.788,241 1109,241 h -96 c -0.788,0 -1.5684,-0.0769 -2.3412,-0.23058 -0.7728,-0.15373 -1.5231,-0.38137 -2.2511,-0.6829 -0.7279,-0.30153 -1.4195,-0.67118 -2.0746,-1.10894 -0.6551,-0.43774 -1.2613,-0.93518 -1.8184,-1.49232 -0.5572,-0.55716 -1.0546,-1.16331 -1.4924,-1.81845 -0.4378,-0.65514 -0.8074,-1.3467 -1.1089,-2.07465 -0.3015,-0.72795 -0.5291,-1.47833 -0.6829,-2.25111 C 1001.0768,230.56827 1001,229.78792 1001,229 v -56 c 0,-0.78793 0.077,-1.5683 0.2305,-2.34111 0.1538,-0.77278 0.3814,-1.52315 0.6829,-2.25111 0.3015,-0.72796 0.6711,-1.4195 1.1089,-2.07464 0.4378,-0.65515 0.9352,-1.2613 1.4924,-1.81845 0.5571,-0.55714 1.1633,-1.05459 1.8184,-1.49234 0.6551,-0.43776 1.3467,-0.8074 2.0746,-1.10893 0.728,-0.30153 1.4783,-0.52914 2.2511,-0.68284 C 1011.4316,161.07686 1012.212,161 1013,161 Z"
         style="fill:#ffffff;fill-opacity:1;fill-rule:nonzero;stroke:none"
         id="path122" /><path
         d="m 1013,161 h 96 c 0.788,0 1.5682,0.0769 2.3411,0.23058 0.7727,0.1537 1.523,0.38131 2.2509,0.68284 0.728,0.30153 1.4196,0.67117 2.0748,1.10892 0.6551,0.43776 1.2612,0.93521 1.8184,1.49235 0.5573,0.55715 1.0547,1.1633 1.4923,1.81845 0.4378,0.65514 0.8074,1.34668 1.1089,2.07464 0.3015,0.72796 0.5292,1.47833 0.6829,2.25111 0.1537,0.77281 0.2306,1.55318 0.2307,2.34111 v 56 c -10e-5,0.78792 -0.077,1.56827 -0.2307,2.34105 -0.1537,0.77278 -0.3814,1.52315 -0.6829,2.2511 -0.3015,0.72795 -0.6711,1.41951 -1.1089,2.07466 -0.4376,0.65514 -0.935,1.26129 -1.4923,1.81845 -0.5572,0.55714 -1.1633,1.0546 -1.8183,1.49236 -0.6553,0.43772 -1.3469,0.80737 -2.0749,1.1089 -0.7279,0.30153 -1.4782,0.52916 -2.2509,0.68289 C 1110.5682,240.92314 1109.788,241 1109,241 h -96 c -0.788,0 -1.5684,-0.0769 -2.3412,-0.23058 -0.7728,-0.15373 -1.5231,-0.38137 -2.2511,-0.6829 -0.7279,-0.30153 -1.4195,-0.67118 -2.0746,-1.10894 -0.6551,-0.43774 -1.2613,-0.93518 -1.8184,-1.49232 -0.5572,-0.55716 -1.0546,-1.16331 -1.4924,-1.81845 -0.4378,-0.65514 -0.8074,-1.3467 -1.1089,-2.07465 -0.3015,-0.72795 -0.5291,-1.47833 -0.6829,-2.25111 C 1001.0768,230.56827 1001,229.78792 1001,229 v -56 c 0,-0.78793 0.077,-1.5683 0.2305,-2.34111 0.1538,-0.77278 0.3814,-1.52315 0.6829,-2.25111 0.3015,-0.72796 0.6711,-1.4195 1.1089,-2.07464 0.4378,-0.65515 0.9352,-1.2613 1.4924,-1.81845 0.5571,-0.55714 1.1633,-1.05459 1.8184,-1.49234 0.6551,-0.43776 1.3467,-0.8074 2.0746,-1.10893 0.728,-0.30153 1.4783,-0.52914 2.2511,-0.68284 C 1011.4316,161.07686 1012.212,161 1013,161 Z"
         style="fill:none;stroke:#000000;stroke-width:1;stroke-linecap:butt;stroke-linejoin:miter;stroke-miterlimit:10;stroke-dasharray:none;stroke-opacity:1"
         id="path124" /></g><g
       id="g132"
       transform="scale(2.9942119)"><path
         d="m 221,401 v 71.76001"
         style="fill:none;stroke:#000000;stroke-width:1;stroke-linecap:butt;stroke-linejoin:miter;stroke-miterlimit:10;stroke-dasharray:none;stroke-opacity:1"
         id="path134" /><path
         d="m 221,478.76001 -4,-8 4,2 4,-2 z"
         style="fill:#000000;fill-opacity:1;fill-rule:nonzero;stroke:none"
         id="path136" /><path
         d="m 221,478.76001 -4,-8 4,2 4,-2 z"
         style="fill:none;stroke:#000000;stroke-width:1;stroke-linecap:butt;stroke-linejoin:miter;stroke-miterlimit:10;stroke-dasharray:none;stroke-opacity:1"
         id="path138" /><path
         d="m 191,401 v 40 H 61 v 31.76001"
         style="fill:none;stroke:#000000;stroke-width:1;stroke-linecap:butt;stroke-linejoin:miter;stroke-miterlimit:10;stroke-dasharray:none;stroke-opacity:1"
         id="path140" /><path
         d="m 61,478.76001 -4,-8 4,2 4,-2 z"
         style="fill:#000000;fill-opacity:1;fill-rule:nonzero;stroke:none"
         id="path142" /><path
         d="m 61,478.76001 -4,-8 4,2 4,-2 z"
         style="fill:none;stroke:#000000;stroke-width:1;stroke-linecap:butt;stroke-linejoin:miter;stroke-miterlimit:10;stroke-dasharray:none;stroke-opacity:1"
         id="path144" /><path
         d="m 173,321 h 96 c 0.78793,0 1.56827,0.0769 2.34106,0.23059 0.7728,0.15369 1.52317,0.38129 2.2511,0.68283 0.72794,0.30152 1.4195,0.67114 2.07468,1.10892 0.65512,0.43774 1.26126,0.93518 1.81842,1.49234 0.55716,0.55716 1.0546,1.1633 1.49237,1.81842 0.43774,0.65512 0.80737,1.34668 1.10889,2.07465 0.30154,0.72796 0.52917,1.47836 0.68289,2.25116 0.15375,0.77279 0.23062,1.55316 0.23059,2.34109 v 56 c 3e-5,0.7879 -0.0768,1.56824 -0.23059,2.34103 -0.15372,0.77277 -0.38135,1.52314 -0.68289,2.2511 -0.30152,0.72797 -0.67115,1.41953 -1.10892,2.07465 -0.43774,0.65515 -0.93518,1.26132 -1.49234,1.81848 -0.55716,0.55716 -1.1633,1.0546 -1.81842,1.49234 -0.65518,0.43774 -1.34674,0.80737 -2.07468,1.10892 -0.72793,0.30154 -1.4783,0.52917 -2.2511,0.68289 C 270.56827,400.92313 269.78793,401 269,401 h -96 c -0.78793,0 -1.5683,-0.0768 -2.34111,-0.23056 -0.77278,-0.15375 -1.52315,-0.38138 -2.25111,-0.68292 -0.72796,-0.30155 -1.4195,-0.67118 -2.07464,-1.10895 -0.65515,-0.43771 -1.2613,-0.93515 -1.81845,-1.49231 -0.55714,-0.55716 -1.05461,-1.16333 -1.49237,-1.81848 -0.43773,-0.65512 -0.80737,-1.34668 -1.1089,-2.07465 -0.30153,-0.72796 -0.52916,-1.47833 -0.68286,-2.2511 C 161.07686,390.56824 161,389.7879 161,389 v -56 c 0,-0.78793 0.0769,-1.5683 0.23056,-2.34109 0.1537,-0.7728 0.38133,-1.5232 0.68286,-2.25116 0.30153,-0.72797 0.67117,-1.41953 1.10892,-2.07465 0.43776,-0.65512 0.93521,-1.26126 1.49235,-1.81842 0.55715,-0.55716 1.1633,-1.0546 1.81845,-1.49234 0.65514,-0.43778 1.34668,-0.8074 2.07464,-1.10892 0.72796,-0.30154 1.47833,-0.52914 2.25111,-0.68283 C 171.4317,321.07687 172.21207,321 173,321 Z"
         style="fill:#ffffff;fill-opacity:1;fill-rule:nonzero;stroke:none"
         id="path146" /><path
         d="m 173,321 h 96 c 0.78793,0 1.56827,0.0769 2.34106,0.23059 0.7728,0.15369 1.52317,0.38129 2.2511,0.68283 0.72794,0.30152 1.4195,0.67114 2.07468,1.10892 0.65512,0.43774 1.26126,0.93518 1.81842,1.49234 0.55716,0.55716 1.0546,1.1633 1.49237,1.81842 0.43774,0.65512 0.80737,1.34668 1.10889,2.07465 0.30154,0.72796 0.52917,1.47836 0.68289,2.25116 0.15375,0.77279 0.23062,1.55316 0.23059,2.34109 v 56 c 3e-5,0.7879 -0.0768,1.56824 -0.23059,2.34103 -0.15372,0.77277 -0.38135,1.52314 -0.68289,2.2511 -0.30152,0.72797 -0.67115,1.41953 -1.10892,2.07465 -0.43774,0.65515 -0.93518,1.26132 -1.49234,1.81848 -0.55716,0.55716 -1.1633,1.0546 -1.81842,1.49234 -0.65518,0.43774 -1.34674,0.80737 -2.07468,1.10892 -0.72793,0.30154 -1.4783,0.52917 -2.2511,0.68289 C 270.56827,400.92313 269.78793,401 269,401 h -96 c -0.78793,0 -1.5683,-0.0768 -2.34111,-0.23056 -0.77278,-0.15375 -1.52315,-0.38138 -2.25111,-0.68292 -0.72796,-0.30155 -1.4195,-0.67118 -2.07464,-1.10895 -0.65515,-0.43771 -1.2613,-0.93515 -1.81845,-1.49231 -0.55714,-0.55716 -1.05461,-1.16333 -1.49237,-1.81848 -0.43773,-0.65512 -0.80737,-1.34668 -1.1089,-2.07465 -0.30153,-0.72796 -0.52916,-1.47833 -0.68286,-2.2511 C 161.07686,390.56824 161,389.7879 161,389 v -56 c 0,-0.78793 0.0769,-1.5683 0.23056,-2.34109 0.1537,-0.7728 0.38133,-1.5232 0.68286,-2.25116 0.30153,-0.72797 0.67117,-1.41953 1.10892,-2.07465 0.43776,-0.65512 0.93521,-1.26126 1.49235,-1.81842 0.55715,-0.55716 1.1633,-1.0546 1.81845,-1.49234 0.65514,-0.43778 1.34668,-0.8074 2.07464,-1.10892 0.72796,-0.30154 1.47833,-0.52914 2.25111,-0.68283 C 171.4317,321.07687 172.21207,321 173,321 Z"
         style="fill:none;stroke:#000000;stroke-width:1;stroke-linecap:butt;stroke-linejoin:miter;stroke-miterlimit:10;stroke-dasharray:none;stroke-opacity:1"
         id="path148" /></g><g
       id="g156"
       transform="scale(2.9942119)"><path
         d="m 381,401 v 71.76001"
         style="fill:none;stroke:#000000;stroke-width:1;stroke-linecap:butt;stroke-linejoin:miter;stroke-miterlimit:10;stroke-dasharray:none;stroke-opacity:1"
         id="path158" /><path
         d="m 381,478.76001 -4,-8 4,2 4,-2 z"
         style="fill:#000000;fill-opacity:1;fill-rule:nonzero;stroke:none"
         id="path160" /><path
         d="m 381,478.76001 -4,-8 4,2 4,-2 z"
         style="fill:none;stroke:#000000;stroke-width:1;stroke-linecap:butt;stroke-linejoin:miter;stroke-miterlimit:10;stroke-dasharray:none;stroke-opacity:1"
         id="path162" /><path
         d="m 333,321 h 96 c 0.7879,0 1.56824,0.0769 2.34103,0.23059 0.7728,0.15369 1.52317,0.38129 2.25113,0.68283 0.72794,0.30152 1.4195,0.67114 2.07462,1.10892 0.65515,0.43774 1.26132,0.93518 1.81848,1.49234 0.55713,0.55716 1.05457,1.1633 1.49234,1.81842 0.43774,0.65512 0.80737,1.34668 1.10889,2.07465 0.30154,0.72796 0.52917,1.47836 0.68289,2.25116 0.15372,0.77279 0.23059,1.55316 0.23062,2.34109 v 56 c -3e-5,0.7879 -0.0769,1.56824 -0.23065,2.34103 -0.15372,0.77277 -0.38132,1.52314 -0.68286,2.2511 -0.30152,0.72797 -0.67115,1.41953 -1.10892,2.07465 -0.43774,0.65515 -0.93518,1.26132 -1.49231,1.81848 -0.55716,0.55716 -1.16333,1.0546 -1.81845,1.49234 -0.65515,0.43774 -1.34671,0.80737 -2.07465,1.10892 -0.72796,0.30154 -1.47833,0.52917 -2.2511,0.68289 C 430.56827,400.92313 429.7879,401 429,401 h -96 c -0.78793,0 -1.5683,-0.0768 -2.34109,-0.23056 -0.7728,-0.15375 -1.5232,-0.38138 -2.25116,-0.68292 -0.72797,-0.30155 -1.41953,-0.67118 -2.07465,-1.10895 -0.65512,-0.43771 -1.26126,-0.93515 -1.81842,-1.49231 -0.55716,-0.55716 -1.05463,-1.16333 -1.49234,-1.81848 -0.43778,-0.65512 -0.8074,-1.34668 -1.10895,-2.07465 -0.30151,-0.72796 -0.52911,-1.47833 -0.68283,-2.2511 C 321.07684,390.56824 320.99997,389.7879 321,389 v -56 c -3e-5,-0.78793 0.0768,-1.5683 0.23056,-2.34109 0.15372,-0.7728 0.38132,-1.5232 0.68283,-2.25116 0.30155,-0.72797 0.67117,-1.41953 1.10892,-2.07465 0.43774,-0.65512 0.93521,-1.26126 1.49237,-1.81842 0.55716,-0.55716 1.1633,-1.0546 1.81842,-1.49234 0.65512,-0.43778 1.34668,-0.8074 2.07465,-1.10892 0.72796,-0.30154 1.47836,-0.52914 2.25116,-0.68283 C 331.4317,321.07687 332.21207,321 333,321 Z"
         style="fill:#ffffff;fill-opacity:1;fill-rule:nonzero;stroke:none"
         id="path164" /><path
         d="m 333,321 h 96 c 0.7879,0 1.56824,0.0769 2.34103,0.23059 0.7728,0.15369 1.52317,0.38129 2.25113,0.68283 0.72794,0.30152 1.4195,0.67114 2.07462,1.10892 0.65515,0.43774 1.26132,0.93518 1.81848,1.49234 0.55713,0.55716 1.05457,1.1633 1.49234,1.81842 0.43774,0.65512 0.80737,1.34668 1.10889,2.07465 0.30154,0.72796 0.52917,1.47836 0.68289,2.25116 0.15372,0.77279 0.23059,1.55316 0.23062,2.34109 v 56 c -3e-5,0.7879 -0.0769,1.56824 -0.23065,2.34103 -0.15372,0.77277 -0.38132,1.52314 -0.68286,2.2511 -0.30152,0.72797 -0.67115,1.41953 -1.10892,2.07465 -0.43774,0.65515 -0.93518,1.26132 -1.49231,1.81848 -0.55716,0.55716 -1.16333,1.0546 -1.81845,1.49234 -0.65515,0.43774 -1.34671,0.80737 -2.07465,1.10892 -0.72796,0.30154 -1.47833,0.52917 -2.2511,0.68289 C 430.56827,400.92313 429.7879,401 429,401 h -96 c -0.78793,0 -1.5683,-0.0768 -2.34109,-0.23056 -0.7728,-0.15375 -1.5232,-0.38138 -2.25116,-0.68292 -0.72797,-0.30155 -1.41953,-0.67118 -2.07465,-1.10895 -0.65512,-0.43771 -1.26126,-0.93515 -1.81842,-1.49231 -0.55716,-0.55716 -1.05463,-1.16333 -1.49234,-1.81848 -0.43778,-0.65512 -0.8074,-1.34668 -1.10895,-2.07465 -0.30151,-0.72796 -0.52911,-1.47833 -0.68283,-2.2511 C 321.07684,390.56824 320.99997,389.7879 321,389 v -56 c -3e-5,-0.78793 0.0768,-1.5683 0.23056,-2.34109 0.15372,-0.7728 0.38132,-1.5232 0.68283,-2.25116 0.30155,-0.72797 0.67117,-1.41953 1.10892,-2.07465 0.43774,-0.65512 0.93521,-1.26126 1.49237,-1.81842 0.55716,-0.55716 1.1633,-1.0546 1.81842,-1.49234 0.65512,-0.43778 1.34668,-0.8074 2.07465,-1.10892 0.72796,-0.30154 1.47836,-0.52914 2.25116,-0.68283 C 331.4317,321.07687 332.21207,321 333,321 Z"
         style="fill:none;stroke:#000000;stroke-width:1;stroke-linecap:butt;stroke-linejoin:miter;stroke-miterlimit:10;stroke-dasharray:none;stroke-opacity:1"
         id="path166" /></g><g
       id="g174"
       transform="scale(2.9942119)"><path
         d="m 493,321 h 96 c 0.7879,0 1.56824,0.0769 2.341,0.23059 0.77277,0.15369 1.52314,0.38129 2.2511,0.68283 0.72797,0.30152 1.4195,0.67114 2.07465,1.10892 0.65515,0.43774 1.26129,0.93518 1.81848,1.49234 0.55713,0.55716 1.05456,1.1633 1.49231,1.81842 0.43774,0.65512 0.80737,1.34668 1.10895,2.07465 0.30157,0.72796 0.52917,1.47836 0.68292,2.25116 0.15369,0.77279 0.23053,1.55316 0.23059,2.34109 v 56 c -6e-5,0.7879 -0.0769,1.56824 -0.23059,2.34103 -0.15375,0.77277 -0.38135,1.52314 -0.68292,2.2511 -0.30158,0.72797 -0.67121,1.41953 -1.10889,2.07465 -0.43781,0.65515 -0.93524,1.26132 -1.49237,1.81848 -0.55719,0.55716 -1.16333,1.0546 -1.81848,1.49234 -0.65515,0.43774 -1.34668,0.80737 -2.07465,1.10892 -0.72796,0.30154 -1.47833,0.52917 -2.2511,0.68289 C 590.56824,400.92313 589.7879,401 589,401 h -96 c -0.78793,0 -1.56833,-0.0768 -2.34113,-0.23056 -0.77279,-0.15375 -1.52319,-0.38138 -2.25116,-0.68292 -0.72793,-0.30155 -1.41949,-0.67118 -2.07464,-1.10895 -0.65512,-0.43771 -1.26126,-0.93515 -1.81839,-1.49231 -0.55716,-0.55716 -1.0546,-1.16333 -1.49234,-1.81848 -0.43778,-0.65512 -0.8074,-1.34668 -1.10895,-2.07465 -0.30154,-0.72796 -0.52914,-1.47833 -0.68286,-2.2511 C 481.07681,390.56824 480.99997,389.7879 481,389 v -56 c -3e-5,-0.78793 0.0768,-1.5683 0.23053,-2.34109 0.15372,-0.7728 0.38132,-1.5232 0.68286,-2.25116 0.30155,-0.72797 0.67117,-1.41953 1.10892,-2.07465 0.43777,-0.65512 0.93521,-1.26126 1.49237,-1.81842 0.55713,-0.55716 1.16327,-1.0546 1.81839,-1.49234 0.65515,-0.43778 1.34671,-0.8074 2.07464,-1.10892 0.72797,-0.30154 1.47837,-0.52914 2.25116,-0.68283 C 491.43167,321.07687 492.21207,321 493,321 Z"
         style="fill:#ffffff;fill-opacity:1;fill-rule:nonzero;stroke:none"
         id="path176" /><path
         d="m 493,321 h 96 c 0.7879,0 1.56824,0.0769 2.341,0.23059 0.77277,0.15369 1.52314,0.38129 2.2511,0.68283 0.72797,0.30152 1.4195,0.67114 2.07465,1.10892 0.65515,0.43774 1.26129,0.93518 1.81848,1.49234 0.55713,0.55716 1.05456,1.1633 1.49231,1.81842 0.43774,0.65512 0.80737,1.34668 1.10895,2.07465 0.30157,0.72796 0.52917,1.47836 0.68292,2.25116 0.15369,0.77279 0.23053,1.55316 0.23059,2.34109 v 56 c -6e-5,0.7879 -0.0769,1.56824 -0.23059,2.34103 -0.15375,0.77277 -0.38135,1.52314 -0.68292,2.2511 -0.30158,0.72797 -0.67121,1.41953 -1.10889,2.07465 -0.43781,0.65515 -0.93524,1.26132 -1.49237,1.81848 -0.55719,0.55716 -1.16333,1.0546 -1.81848,1.49234 -0.65515,0.43774 -1.34668,0.80737 -2.07465,1.10892 -0.72796,0.30154 -1.47833,0.52917 -2.2511,0.68289 C 590.56824,400.92313 589.7879,401 589,401 h -96 c -0.78793,0 -1.56833,-0.0768 -2.34113,-0.23056 -0.77279,-0.15375 -1.52319,-0.38138 -2.25116,-0.68292 -0.72793,-0.30155 -1.41949,-0.67118 -2.07464,-1.10895 -0.65512,-0.43771 -1.26126,-0.93515 -1.81839,-1.49231 -0.55716,-0.55716 -1.0546,-1.16333 -1.49234,-1.81848 -0.43778,-0.65512 -0.8074,-1.34668 -1.10895,-2.07465 -0.30154,-0.72796 -0.52914,-1.47833 -0.68286,-2.2511 C 481.07681,390.56824 480.99997,389.7879 481,389 v -56 c -3e-5,-0.78793 0.0768,-1.5683 0.23053,-2.34109 0.15372,-0.7728 0.38132,-1.5232 0.68286,-2.25116 0.30155,-0.72797 0.67117,-1.41953 1.10892,-2.07465 0.43777,-0.65512 0.93521,-1.26126 1.49237,-1.81842 0.55713,-0.55716 1.16327,-1.0546 1.81839,-1.49234 0.65515,-0.43778 1.34671,-0.8074 2.07464,-1.10892 0.72797,-0.30154 1.47837,-0.52914 2.25116,-0.68283 C 491.43167,321.07687 492.21207,321 493,321 Z"
         style="fill:none;stroke:#000000;stroke-width:1;stroke-linecap:butt;stroke-linejoin:miter;stroke-miterlimit:10;stroke-dasharray:none;stroke-opacity:1"
         id="path178" /></g><g
       id="g186"
       transform="scale(2.9942119)"><path
         d="m 701,401 v 71.76001"
         style="fill:none;stroke:#000000;stroke-width:1;stroke-linecap:butt;stroke-linejoin:miter;stroke-miterlimit:10;stroke-dasharray:none;stroke-opacity:1"
         id="path188" /><path
         d="m 701,478.76001 -4,-8 4,2 4,-2 z"
         style="fill:#000000;fill-opacity:1;fill-rule:nonzero;stroke:none"
         id="path190" /><path
         d="m 701,478.76001 -4,-8 4,2 4,-2 z"
         style="fill:none;stroke:#000000;stroke-width:1;stroke-linecap:butt;stroke-linejoin:miter;stroke-miterlimit:10;stroke-dasharray:none;stroke-opacity:1"
         id="path192" /><path
         d="m 653,321 h 96 c 0.7879,0 1.56824,0.0769 2.341,0.23059 0.77277,0.15369 1.52314,0.38129 2.2511,0.68283 0.72797,0.30152 1.4195,0.67114 2.07471,1.10892 0.65515,0.43774 1.26129,0.93518 1.81842,1.49234 0.55713,0.55716 1.05456,1.1633 1.49231,1.81842 0.43768,0.65512 0.80737,1.34668 1.10895,2.07465 0.30151,0.72796 0.52911,1.47836 0.68286,2.25116 0.15368,0.77279 0.23059,1.55316 0.23065,2.34109 v 56 c -6e-5,0.7879 -0.077,1.56824 -0.23071,2.34103 -0.15369,0.77277 -0.38129,1.52314 -0.6828,2.2511 -0.30158,0.72797 -0.67127,1.41953 -1.10895,2.07465 -0.43775,0.65515 -0.93518,1.26132 -1.49231,1.81848 -0.55713,0.55716 -1.16327,1.0546 -1.81848,1.49234 -0.65515,0.43774 -1.34668,0.80737 -2.07465,1.10892 -0.72796,0.30154 -1.47833,0.52917 -2.2511,0.68289 C 750.56824,400.92313 749.7879,401 749,401 h -96 c -0.7879,0 -1.5683,-0.0768 -2.34113,-0.23056 -0.77276,-0.15375 -1.52319,-0.38138 -2.25116,-0.68292 -0.72796,-0.30155 -1.41949,-0.67118 -2.07464,-1.10895 -0.65515,-0.43771 -1.26129,-0.93515 -1.81842,-1.49231 -0.55719,-0.55716 -1.05463,-1.16333 -1.49237,-1.81848 -0.43775,-0.65512 -0.80738,-1.34668 -1.10889,-2.07465 -0.30157,-0.72796 -0.52917,-1.47833 -0.68286,-2.2511 C 641.07684,390.56824 641,389.7879 641,389 v -56 c 0,-0.78793 0.0768,-1.5683 0.23053,-2.34109 0.15369,-0.7728 0.38129,-1.5232 0.68286,-2.25116 0.30151,-0.72797 0.67114,-1.41953 1.10889,-2.07465 0.43774,-0.65512 0.93518,-1.26126 1.49237,-1.81842 0.55713,-0.55716 1.16327,-1.0546 1.81842,-1.49234 0.65515,-0.43778 1.34668,-0.8074 2.07464,-1.10892 0.72797,-0.30154 1.4784,-0.52914 2.25116,-0.68283 C 651.4317,321.07687 652.2121,321 653,321 Z"
         style="fill:#ffffff;fill-opacity:1;fill-rule:nonzero;stroke:none"
         id="path194" /><path
         d="m 653,321 h 96 c 0.7879,0 1.56824,0.0769 2.341,0.23059 0.77277,0.15369 1.52314,0.38129 2.2511,0.68283 0.72797,0.30152 1.4195,0.67114 2.07471,1.10892 0.65515,0.43774 1.26129,0.93518 1.81842,1.49234 0.55713,0.55716 1.05456,1.1633 1.49231,1.81842 0.43768,0.65512 0.80737,1.34668 1.10895,2.07465 0.30151,0.72796 0.52911,1.47836 0.68286,2.25116 0.15368,0.77279 0.23059,1.55316 0.23065,2.34109 v 56 c -6e-5,0.7879 -0.077,1.56824 -0.23071,2.34103 -0.15369,0.77277 -0.38129,1.52314 -0.6828,2.2511 -0.30158,0.72797 -0.67127,1.41953 -1.10895,2.07465 -0.43775,0.65515 -0.93518,1.26132 -1.49231,1.81848 -0.55713,0.55716 -1.16327,1.0546 -1.81848,1.49234 -0.65515,0.43774 -1.34668,0.80737 -2.07465,1.10892 -0.72796,0.30154 -1.47833,0.52917 -2.2511,0.68289 C 750.56824,400.92313 749.7879,401 749,401 h -96 c -0.7879,0 -1.5683,-0.0768 -2.34113,-0.23056 -0.77276,-0.15375 -1.52319,-0.38138 -2.25116,-0.68292 -0.72796,-0.30155 -1.41949,-0.67118 -2.07464,-1.10895 -0.65515,-0.43771 -1.26129,-0.93515 -1.81842,-1.49231 -0.55719,-0.55716 -1.05463,-1.16333 -1.49237,-1.81848 -0.43775,-0.65512 -0.80738,-1.34668 -1.10889,-2.07465 -0.30157,-0.72796 -0.52917,-1.47833 -0.68286,-2.2511 C 641.07684,390.56824 641,389.7879 641,389 v -56 c 0,-0.78793 0.0768,-1.5683 0.23053,-2.34109 0.15369,-0.7728 0.38129,-1.5232 0.68286,-2.25116 0.30151,-0.72797 0.67114,-1.41953 1.10889,-2.07465 0.43774,-0.65512 0.93518,-1.26126 1.49237,-1.81842 0.55713,-0.55716 1.16327,-1.0546 1.81842,-1.49234 0.65515,-0.43778 1.34668,-0.8074 2.07464,-1.10892 0.72797,-0.30154 1.4784,-0.52914 2.25116,-0.68283 C 651.4317,321.07687 652.2121,321 653,321 Z"
         style="fill:none;stroke:#000000;stroke-width:1;stroke-linecap:butt;stroke-linejoin:miter;stroke-miterlimit:10;stroke-dasharray:none;stroke-opacity:1"
         id="path196" /></g><g
       id="g204"
       transform="scale(2.9942119)"><path
         d="m 813,321 h 96 c 0.7879,0 1.56824,0.0769 2.341,0.23059 0.77283,0.15369 1.5232,0.38129 2.25116,0.68283 0.72791,0.30152 1.41944,0.67114 2.07459,1.10892 0.65515,0.43774 1.26129,0.93518 1.81848,1.49234 0.55713,0.55716 1.05456,1.1633 1.49225,1.81842 0.4378,0.65512 0.80743,1.34668 1.10895,2.07465 0.30157,0.72796 0.52917,1.47836 0.68292,2.25116 C 920.9231,331.4317 921,332.21207 921,333 v 56 c 0,0.7879 -0.0769,1.56824 -0.23065,2.34103 -0.15375,0.77277 -0.38135,1.52314 -0.68286,2.2511 -0.30152,0.72797 -0.67121,1.41953 -1.10901,2.07465 -0.43769,0.65515 -0.93512,1.26132 -1.49225,1.81848 -0.55719,0.55716 -1.16333,1.0546 -1.81848,1.49234 -0.65515,0.43774 -1.34668,0.80737 -2.07459,1.10892 -0.72796,0.30154 -1.47833,0.52917 -2.25116,0.68289 C 910.56824,400.92313 909.7879,401 909,401 h -96 c -0.7879,0 -1.5683,-0.0768 -2.34113,-0.23056 -0.77276,-0.15375 -1.52319,-0.38138 -2.25116,-0.68292 -0.7279,-0.30155 -1.41943,-0.67118 -2.07458,-1.10895 -0.65509,-0.43771 -1.26123,-0.93515 -1.81842,-1.49231 -0.55719,-0.55716 -1.05463,-1.16333 -1.49243,-1.81848 -0.43769,-0.65512 -0.80731,-1.34668 -1.10889,-2.07465 -0.30151,-0.72796 -0.52911,-1.47833 -0.68286,-2.2511 C 801.07684,390.56824 801,389.7879 801,389 v -56 c 0,-0.78793 0.0768,-1.5683 0.23053,-2.34109 0.15375,-0.7728 0.38135,-1.5232 0.68286,-2.25116 0.30158,-0.72797 0.6712,-1.41953 1.10889,-2.07465 0.4378,-0.65512 0.93524,-1.26126 1.49243,-1.81842 0.55719,-0.55716 1.16333,-1.0546 1.81842,-1.49234 0.65515,-0.43778 1.34668,-0.8074 2.07458,-1.10892 0.72797,-0.30154 1.4784,-0.52914 2.25116,-0.68283 C 811.4317,321.07687 812.2121,321 813,321 Z"
         style="fill:#ffffff;fill-opacity:1;fill-rule:nonzero;stroke:none"
         id="path206" /><path
         d="m 813,321 h 96 c 0.7879,0 1.56824,0.0769 2.341,0.23059 0.77283,0.15369 1.5232,0.38129 2.25116,0.68283 0.72791,0.30152 1.41944,0.67114 2.07459,1.10892 0.65515,0.43774 1.26129,0.93518 1.81848,1.49234 0.55713,0.55716 1.05456,1.1633 1.49225,1.81842 0.4378,0.65512 0.80743,1.34668 1.10895,2.07465 0.30157,0.72796 0.52917,1.47836 0.68292,2.25116 C 920.9231,331.4317 921,332.21207 921,333 v 56 c 0,0.7879 -0.0769,1.56824 -0.23065,2.34103 -0.15375,0.77277 -0.38135,1.52314 -0.68286,2.2511 -0.30152,0.72797 -0.67121,1.41953 -1.10901,2.07465 -0.43769,0.65515 -0.93512,1.26132 -1.49225,1.81848 -0.55719,0.55716 -1.16333,1.0546 -1.81848,1.49234 -0.65515,0.43774 -1.34668,0.80737 -2.07459,1.10892 -0.72796,0.30154 -1.47833,0.52917 -2.25116,0.68289 C 910.56824,400.92313 909.7879,401 909,401 h -96 c -0.7879,0 -1.5683,-0.0768 -2.34113,-0.23056 -0.77276,-0.15375 -1.52319,-0.38138 -2.25116,-0.68292 -0.7279,-0.30155 -1.41943,-0.67118 -2.07458,-1.10895 -0.65509,-0.43771 -1.26123,-0.93515 -1.81842,-1.49231 -0.55719,-0.55716 -1.05463,-1.16333 -1.49243,-1.81848 -0.43769,-0.65512 -0.80731,-1.34668 -1.10889,-2.07465 -0.30151,-0.72796 -0.52911,-1.47833 -0.68286,-2.2511 C 801.07684,390.56824 801,389.7879 801,389 v -56 c 0,-0.78793 0.0768,-1.5683 0.23053,-2.34109 0.15375,-0.7728 0.38135,-1.5232 0.68286,-2.25116 0.30158,-0.72797 0.6712,-1.41953 1.10889,-2.07465 0.4378,-0.65512 0.93524,-1.26126 1.49243,-1.81842 0.55719,-0.55716 1.16333,-1.0546 1.81842,-1.49234 0.65515,-0.43778 1.34668,-0.8074 2.07458,-1.10892 0.72797,-0.30154 1.4784,-0.52914 2.25116,-0.68283 C 811.4317,321.07687 812.2121,321 813,321 Z"
         style="fill:none;stroke:#000000;stroke-width:1;stroke-linecap:butt;stroke-linejoin:miter;stroke-miterlimit:10;stroke-dasharray:none;stroke-opacity:1"
         id="path208" /></g><g
       id="g216"
       transform="scale(2.9942119)"><path
         d="m 1013,321 h 96 c 0.788,0 1.5682,0.0769 2.3411,0.23059 0.7727,0.15369 1.523,0.38129 2.2509,0.68283 0.728,0.30152 1.4196,0.67114 2.0748,1.10892 0.6551,0.43774 1.2612,0.93518 1.8184,1.49234 0.5573,0.55716 1.0547,1.1633 1.4923,1.81842 0.4378,0.65512 0.8074,1.34668 1.1089,2.07465 0.3015,0.72796 0.5292,1.47836 0.6829,2.25116 0.1537,0.77279 0.2306,1.55316 0.2307,2.34109 v 56 c -10e-5,0.7879 -0.077,1.56824 -0.2307,2.34103 -0.1537,0.77277 -0.3814,1.52314 -0.6829,2.2511 -0.3015,0.72797 -0.6711,1.41953 -1.1089,2.07465 -0.4376,0.65515 -0.935,1.26132 -1.4923,1.81848 -0.5572,0.55716 -1.1633,1.0546 -1.8183,1.49234 -0.6553,0.43774 -1.3469,0.80737 -2.0749,1.10892 -0.7279,0.30154 -1.4782,0.52917 -2.2509,0.68289 C 1110.5682,400.92313 1109.788,401 1109,401 h -96 c -0.788,0 -1.5684,-0.0768 -2.3412,-0.23056 -0.7728,-0.15375 -1.5231,-0.38138 -2.2511,-0.68292 -0.7279,-0.30155 -1.4195,-0.67118 -2.0746,-1.10895 -0.6551,-0.43771 -1.2613,-0.93515 -1.8184,-1.49231 -0.5572,-0.55716 -1.0546,-1.16333 -1.4924,-1.81848 -0.4378,-0.65512 -0.8074,-1.34668 -1.1089,-2.07465 -0.3015,-0.72796 -0.5291,-1.47833 -0.6829,-2.2511 C 1001.0768,390.56824 1001,389.7879 1001,389 v -56 c 0,-0.78793 0.077,-1.5683 0.2305,-2.34109 0.1538,-0.7728 0.3814,-1.5232 0.6829,-2.25116 0.3015,-0.72797 0.6711,-1.41953 1.1089,-2.07465 0.4378,-0.65512 0.9352,-1.26126 1.4924,-1.81842 0.5571,-0.55716 1.1633,-1.0546 1.8184,-1.49234 0.6551,-0.43778 1.3467,-0.8074 2.0746,-1.10892 0.728,-0.30154 1.4783,-0.52914 2.2511,-0.68283 C 1011.4316,321.07687 1012.212,321 1013,321 Z"
         style="fill:#ffffff;fill-opacity:1;fill-rule:nonzero;stroke:none"
         id="path218" /><path
         d="m 1013,321 h 96 c 0.788,0 1.5682,0.0769 2.3411,0.23059 0.7727,0.15369 1.523,0.38129 2.2509,0.68283 0.728,0.30152 1.4196,0.67114 2.0748,1.10892 0.6551,0.43774 1.2612,0.93518 1.8184,1.49234 0.5573,0.55716 1.0547,1.1633 1.4923,1.81842 0.4378,0.65512 0.8074,1.34668 1.1089,2.07465 0.3015,0.72796 0.5292,1.47836 0.6829,2.25116 0.1537,0.77279 0.2306,1.55316 0.2307,2.34109 v 56 c -10e-5,0.7879 -0.077,1.56824 -0.2307,2.34103 -0.1537,0.77277 -0.3814,1.52314 -0.6829,2.2511 -0.3015,0.72797 -0.6711,1.41953 -1.1089,2.07465 -0.4376,0.65515 -0.935,1.26132 -1.4923,1.81848 -0.5572,0.55716 -1.1633,1.0546 -1.8183,1.49234 -0.6553,0.43774 -1.3469,0.80737 -2.0749,1.10892 -0.7279,0.30154 -1.4782,0.52917 -2.2509,0.68289 C 1110.5682,400.92313 1109.788,401 1109,401 h -96 c -0.788,0 -1.5684,-0.0768 -2.3412,-0.23056 -0.7728,-0.15375 -1.5231,-0.38138 -2.2511,-0.68292 -0.7279,-0.30155 -1.4195,-0.67118 -2.0746,-1.10895 -0.6551,-0.43771 -1.2613,-0.93515 -1.8184,-1.49231 -0.5572,-0.55716 -1.0546,-1.16333 -1.4924,-1.81848 -0.4378,-0.65512 -0.8074,-1.34668 -1.1089,-2.07465 -0.3015,-0.72796 -0.5291,-1.47833 -0.6829,-2.2511 C 1001.0768,390.56824 1001,389.7879 1001,389 v -56 c 0,-0.78793 0.077,-1.5683 0.2305,-2.34109 0.1538,-0.7728 0.3814,-1.5232 0.6829,-2.25116 0.3015,-0.72797 0.6711,-1.41953 1.1089,-2.07465 0.4378,-0.65512 0.9352,-1.26126 1.4924,-1.81842 0.5571,-0.55716 1.1633,-1.0546 1.8184,-1.49234 0.6551,-0.43778 1.3467,-0.8074 2.0746,-1.10892 0.728,-0.30154 1.4783,-0.52914 2.2511,-0.68283 C 1011.4316,321.07687 1012.212,321 1013,321 Z"
         style="fill:none;stroke:#000000;stroke-width:1;stroke-linecap:butt;stroke-linejoin:miter;stroke-miterlimit:10;stroke-dasharray:none;stroke-opacity:1"
         id="path220" /></g><g
       id="g228"
       transform="scale(2.9942119)"><path
         d="m 333,481 h 96 c 0.7879,0 1.56824,0.0768 2.34103,0.23056 0.7728,0.15372 1.52317,0.38132 2.25113,0.68286 0.72794,0.30152 1.4195,0.67114 2.07462,1.10889 0.65515,0.43777 1.26132,0.93521 1.81848,1.49237 0.55713,0.55713 1.05457,1.16327 1.49234,1.81839 0.43774,0.65515 0.80737,1.34671 1.10889,2.07464 0.30154,0.72797 0.52917,1.47837 0.68289,2.25116 0.15372,0.7728 0.23059,1.5532 0.23062,2.34113 v 56 c -3e-5,0.7879 -0.0769,1.56824 -0.23065,2.341 -0.15372,0.77277 -0.38132,1.5232 -0.68286,2.25116 -0.30152,0.72791 -0.67115,1.41944 -1.10892,2.07459 -0.43774,0.65509 -0.93518,1.26129 -1.49231,1.81848 -0.55716,0.55713 -1.16333,1.05456 -1.81845,1.49237 -0.65515,0.43768 -1.34671,0.80731 -2.07465,1.10889 -0.72796,0.30157 -1.47833,0.52917 -2.2511,0.68292 C 430.56827,560.9231 429.7879,560.99994 429,561 h -96 c -0.78793,-6e-5 -1.5683,-0.0769 -2.34109,-0.23059 -0.7728,-0.15375 -1.5232,-0.38135 -2.25116,-0.68292 -0.72797,-0.30158 -1.41953,-0.67121 -2.07465,-1.10889 -0.65512,-0.43781 -1.26126,-0.93524 -1.81842,-1.49237 -0.55716,-0.55719 -1.05463,-1.16339 -1.49234,-1.81848 -0.43778,-0.65515 -0.8074,-1.34668 -1.10895,-2.07459 -0.30151,-0.72796 -0.52911,-1.47839 -0.68283,-2.25116 C 321.07684,550.56824 320.99997,549.7879 321,549 v -56 c -3e-5,-0.78793 0.0768,-1.56833 0.23056,-2.34113 0.15372,-0.77279 0.38132,-1.52319 0.68283,-2.25116 0.30155,-0.72793 0.67117,-1.41949 1.10892,-2.07464 0.43774,-0.65512 0.93521,-1.26126 1.49237,-1.81839 0.55716,-0.55716 1.1633,-1.0546 1.81842,-1.49234 0.65512,-0.43778 1.34668,-0.8074 2.07465,-1.10892 0.72796,-0.30154 1.47836,-0.52914 2.25116,-0.68286 C 331.4317,481.07684 332.21207,481 333,481 Z"
         style="fill:#ffffff;fill-opacity:1;fill-rule:nonzero;stroke:none"
         id="path230" /><path
         d="m 333,481 h 96 c 0.7879,0 1.56824,0.0768 2.34103,0.23056 0.7728,0.15372 1.52317,0.38132 2.25113,0.68286 0.72794,0.30152 1.4195,0.67114 2.07462,1.10889 0.65515,0.43777 1.26132,0.93521 1.81848,1.49237 0.55713,0.55713 1.05457,1.16327 1.49234,1.81839 0.43774,0.65515 0.80737,1.34671 1.10889,2.07464 0.30154,0.72797 0.52917,1.47837 0.68289,2.25116 0.15372,0.7728 0.23059,1.5532 0.23062,2.34113 v 56 c -3e-5,0.7879 -0.0769,1.56824 -0.23065,2.341 -0.15372,0.77277 -0.38132,1.5232 -0.68286,2.25116 -0.30152,0.72791 -0.67115,1.41944 -1.10892,2.07459 -0.43774,0.65509 -0.93518,1.26129 -1.49231,1.81848 -0.55716,0.55713 -1.16333,1.05456 -1.81845,1.49237 -0.65515,0.43768 -1.34671,0.80731 -2.07465,1.10889 -0.72796,0.30157 -1.47833,0.52917 -2.2511,0.68292 C 430.56827,560.9231 429.7879,560.99994 429,561 h -96 c -0.78793,-6e-5 -1.5683,-0.0769 -2.34109,-0.23059 -0.7728,-0.15375 -1.5232,-0.38135 -2.25116,-0.68292 -0.72797,-0.30158 -1.41953,-0.67121 -2.07465,-1.10889 -0.65512,-0.43781 -1.26126,-0.93524 -1.81842,-1.49237 -0.55716,-0.55719 -1.05463,-1.16339 -1.49234,-1.81848 -0.43778,-0.65515 -0.8074,-1.34668 -1.10895,-2.07459 -0.30151,-0.72796 -0.52911,-1.47839 -0.68283,-2.25116 C 321.07684,550.56824 320.99997,549.7879 321,549 v -56 c -3e-5,-0.78793 0.0768,-1.56833 0.23056,-2.34113 0.15372,-0.77279 0.38132,-1.52319 0.68283,-2.25116 0.30155,-0.72793 0.67117,-1.41949 1.10892,-2.07464 0.43774,-0.65512 0.93521,-1.26126 1.49237,-1.81839 0.55716,-0.55716 1.1633,-1.0546 1.81842,-1.49234 0.65512,-0.43778 1.34668,-0.8074 2.07465,-1.10892 0.72796,-0.30154 1.47836,-0.52914 2.25116,-0.68286 C 331.4317,481.07684 332.21207,481 333,481 Z"
         style="fill:none;stroke:#000000;stroke-width:1;stroke-linecap:butt;stroke-linejoin:miter;stroke-miterlimit:10;stroke-dasharray:none;stroke-opacity:1"
         id="path232" /></g><g
       id="g240"
       transform="scale(2.9942119)"><path
         d="m 173,481 h 96 c 0.78793,0 1.56827,0.0768 2.34106,0.23056 0.7728,0.15372 1.52317,0.38132 2.2511,0.68286 0.72794,0.30152 1.4195,0.67114 2.07468,1.10889 0.65512,0.43777 1.26126,0.93521 1.81842,1.49237 0.55716,0.55713 1.0546,1.16327 1.49237,1.81839 0.43774,0.65515 0.80737,1.34671 1.10889,2.07464 0.30154,0.72797 0.52917,1.47837 0.68289,2.25116 0.15375,0.7728 0.23062,1.5532 0.23059,2.34113 v 56 c 3e-5,0.7879 -0.0768,1.56824 -0.23059,2.341 -0.15372,0.77277 -0.38135,1.5232 -0.68289,2.25116 -0.30152,0.72791 -0.67115,1.41944 -1.10892,2.07459 -0.43774,0.65509 -0.93518,1.26129 -1.49234,1.81848 -0.55716,0.55713 -1.1633,1.05456 -1.81842,1.49237 -0.65518,0.43768 -1.34674,0.80731 -2.07468,1.10889 -0.72793,0.30157 -1.4783,0.52917 -2.2511,0.68292 C 270.56827,560.9231 269.78793,560.99994 269,561 h -96 c -0.78793,-6e-5 -1.5683,-0.0769 -2.34111,-0.23059 -0.77278,-0.15375 -1.52315,-0.38135 -2.25111,-0.68292 -0.72796,-0.30158 -1.4195,-0.67121 -2.07464,-1.10889 -0.65515,-0.43781 -1.2613,-0.93524 -1.81845,-1.49237 -0.55714,-0.55719 -1.05461,-1.16339 -1.49237,-1.81848 -0.43773,-0.65515 -0.80737,-1.34668 -1.1089,-2.07459 -0.30153,-0.72796 -0.52916,-1.47839 -0.68286,-2.25116 C 161.07686,550.56824 161,549.7879 161,549 v -56 c 0,-0.78793 0.0769,-1.56833 0.23056,-2.34113 0.1537,-0.77279 0.38133,-1.52319 0.68286,-2.25116 0.30153,-0.72793 0.67117,-1.41949 1.10892,-2.07464 0.43776,-0.65512 0.93521,-1.26126 1.49235,-1.81839 0.55715,-0.55716 1.1633,-1.0546 1.81845,-1.49234 0.65514,-0.43778 1.34668,-0.8074 2.07464,-1.10892 0.72796,-0.30154 1.47833,-0.52914 2.25111,-0.68286 C 171.4317,481.07684 172.21207,481 173,481 Z"
         style="fill:#ffffff;fill-opacity:1;fill-rule:nonzero;stroke:none"
         id="path242" /><path
         d="m 173,481 h 96 c 0.78793,0 1.56827,0.0768 2.34106,0.23056 0.7728,0.15372 1.52317,0.38132 2.2511,0.68286 0.72794,0.30152 1.4195,0.67114 2.07468,1.10889 0.65512,0.43777 1.26126,0.93521 1.81842,1.49237 0.55716,0.55713 1.0546,1.16327 1.49237,1.81839 0.43774,0.65515 0.80737,1.34671 1.10889,2.07464 0.30154,0.72797 0.52917,1.47837 0.68289,2.25116 0.15375,0.7728 0.23062,1.5532 0.23059,2.34113 v 56 c 3e-5,0.7879 -0.0768,1.56824 -0.23059,2.341 -0.15372,0.77277 -0.38135,1.5232 -0.68289,2.25116 -0.30152,0.72791 -0.67115,1.41944 -1.10892,2.07459 -0.43774,0.65509 -0.93518,1.26129 -1.49234,1.81848 -0.55716,0.55713 -1.1633,1.05456 -1.81842,1.49237 -0.65518,0.43768 -1.34674,0.80731 -2.07468,1.10889 -0.72793,0.30157 -1.4783,0.52917 -2.2511,0.68292 C 270.56827,560.9231 269.78793,560.99994 269,561 h -96 c -0.78793,-6e-5 -1.5683,-0.0769 -2.34111,-0.23059 -0.77278,-0.15375 -1.52315,-0.38135 -2.25111,-0.68292 -0.72796,-0.30158 -1.4195,-0.67121 -2.07464,-1.10889 -0.65515,-0.43781 -1.2613,-0.93524 -1.81845,-1.49237 -0.55714,-0.55719 -1.05461,-1.16339 -1.49237,-1.81848 -0.43773,-0.65515 -0.80737,-1.34668 -1.1089,-2.07459 -0.30153,-0.72796 -0.52916,-1.47839 -0.68286,-2.25116 C 161.07686,550.56824 161,549.7879 161,549 v -56 c 0,-0.78793 0.0769,-1.56833 0.23056,-2.34113 0.1537,-0.77279 0.38133,-1.52319 0.68286,-2.25116 0.30153,-0.72793 0.67117,-1.41949 1.10892,-2.07464 0.43776,-0.65512 0.93521,-1.26126 1.49235,-1.81839 0.55715,-0.55716 1.1633,-1.0546 1.81845,-1.49234 0.65514,-0.43778 1.34668,-0.8074 2.07464,-1.10892 0.72796,-0.30154 1.47833,-0.52914 2.25111,-0.68286 C 171.4317,481.07684 172.21207,481 173,481 Z"
         style="fill:none;stroke:#000000;stroke-width:1;stroke-linecap:butt;stroke-linejoin:miter;stroke-miterlimit:10;stroke-dasharray:none;stroke-opacity:1"
         id="path244" /></g><g
       id="g252"
       transform="scale(2.9942119)"><path
         d="m 61,561 v 71.76001"
         style="fill:none;stroke:#000000;stroke-width:1;stroke-linecap:butt;stroke-linejoin:miter;stroke-miterlimit:10;stroke-dasharray:none;stroke-opacity:1"
         id="path254" /><path
         d="m 61,638.76001 -4,-8 4,2 4,-2 z"
         style="fill:#000000;fill-opacity:1;fill-rule:nonzero;stroke:none"
         id="path256" /><path
         d="m 61,638.76001 -4,-8 4,2 4,-2 z"
         style="fill:none;stroke:#000000;stroke-width:1;stroke-linecap:butt;stroke-linejoin:miter;stroke-miterlimit:10;stroke-dasharray:none;stroke-opacity:1"
         id="path258" /><path
         d="m 13,481 h 96 c 0.78793,0 1.56829,0.0768 2.34108,0.23056 0.77279,0.15372 1.52316,0.38132 2.25111,0.68286 0.72795,0.30152 1.41949,0.67114 2.07463,1.10889 0.65515,0.43777 1.2613,0.93521 1.81846,1.49237 0.55715,0.55713 1.05459,1.16327 1.49234,1.81839 0.43775,0.65515 0.80739,1.34671 1.10892,2.07464 0.30154,0.72797 0.52916,1.47837 0.68288,2.25116 C 120.92314,491.43167 121,492.21207 121,493 v 56 c 0,0.7879 -0.0769,1.56824 -0.23058,2.341 -0.15372,0.77277 -0.38134,1.5232 -0.68287,2.25116 -0.30154,0.72791 -0.67118,1.41944 -1.10893,2.07459 -0.43775,0.65509 -0.93519,1.26129 -1.49234,1.81848 -0.55716,0.55713 -1.16331,1.05456 -1.81845,1.49237 -0.65514,0.43768 -1.34669,0.80731 -2.07464,1.10889 -0.72795,0.30157 -1.47832,0.52917 -2.25111,0.68292 C 110.56829,560.9231 109.78793,560.99994 109,561 H 13 c -0.787931,-6e-5 -1.568293,-0.0769 -2.341085,-0.23059 C 9.8861237,560.61566 9.1357517,560.38806 8.4077978,560.08649 7.6798444,559.78491 6.988297,559.41528 6.3331561,558.9776 5.6780157,558.53979 5.0718694,558.04236 4.5147181,557.48523 3.9575665,556.92804 3.4601154,556.32184 3.0223644,555.66675 2.5846133,555.0116 2.2149734,554.32007 1.9134454,553.59216 1.6119173,552.8642 1.3842943,552.11377 1.2305765,551.341 1.0768588,550.56824 0.99999994,549.7879 1,549 v -56 c -6e-8,-0.78793 0.076859,-1.56833 0.2305765,-2.34113 0.1537178,-0.77279 0.3813408,-1.52319 0.6828689,-2.25116 0.301528,-0.72793 0.6711679,-1.41949 1.108919,-2.07464 0.437751,-0.65512 0.9352021,-1.26126 1.4923537,-1.81839 0.5571513,-0.55716 1.1632976,-1.0546 1.818438,-1.49234 0.6551409,-0.43778 1.3466883,-0.8074 2.0746417,-1.10892 0.7279539,-0.30154 1.4783259,-0.52914 2.2511172,-0.68286 C 11.431707,481.07684 12.212069,481 13,481 Z"
         style="fill:#ffffff;fill-opacity:1;fill-rule:nonzero;stroke:none"
         id="path260" /><path
         d="m 13,481 h 96 c 0.78793,0 1.56829,0.0768 2.34108,0.23056 0.77279,0.15372 1.52316,0.38132 2.25111,0.68286 0.72795,0.30152 1.41949,0.67114 2.07463,1.10889 0.65515,0.43777 1.2613,0.93521 1.81846,1.49237 0.55715,0.55713 1.05459,1.16327 1.49234,1.81839 0.43775,0.65515 0.80739,1.34671 1.10892,2.07464 0.30154,0.72797 0.52916,1.47837 0.68288,2.25116 C 120.92314,491.43167 121,492.21207 121,493 v 56 c 0,0.7879 -0.0769,1.56824 -0.23058,2.341 -0.15372,0.77277 -0.38134,1.5232 -0.68287,2.25116 -0.30154,0.72791 -0.67118,1.41944 -1.10893,2.07459 -0.43775,0.65509 -0.93519,1.26129 -1.49234,1.81848 -0.55716,0.55713 -1.16331,1.05456 -1.81845,1.49237 -0.65514,0.43768 -1.34669,0.80731 -2.07464,1.10889 -0.72795,0.30157 -1.47832,0.52917 -2.25111,0.68292 C 110.56829,560.9231 109.78793,560.99994 109,561 H 13 c -0.787931,-6e-5 -1.568293,-0.0769 -2.341085,-0.23059 C 9.8861237,560.61566 9.1357517,560.38806 8.4077978,560.08649 7.6798444,559.78491 6.988297,559.41528 6.3331561,558.9776 5.6780157,558.53979 5.0718694,558.04236 4.5147181,557.48523 3.9575665,556.92804 3.4601154,556.32184 3.0223644,555.66675 2.5846133,555.0116 2.2149734,554.32007 1.9134454,553.59216 1.6119173,552.8642 1.3842943,552.11377 1.2305765,551.341 1.0768588,550.56824 0.99999994,549.7879 1,549 v -56 c -6e-8,-0.78793 0.076859,-1.56833 0.2305765,-2.34113 0.1537178,-0.77279 0.3813408,-1.52319 0.6828689,-2.25116 0.301528,-0.72793 0.6711679,-1.41949 1.108919,-2.07464 0.437751,-0.65512 0.9352021,-1.26126 1.4923537,-1.81839 0.5571513,-0.55716 1.1632976,-1.0546 1.818438,-1.49234 0.6551409,-0.43778 1.3466883,-0.8074 2.0746417,-1.10892 0.7279539,-0.30154 1.4783259,-0.52914 2.2511172,-0.68286 C 11.431707,481.07684 12.212069,481 13,481 Z"
         style="fill:none;stroke:#000000;stroke-width:1;stroke-linecap:butt;stroke-linejoin:miter;stroke-miterlimit:10;stroke-dasharray:none;stroke-opacity:1"
         id="path262" /></g><g
       id="g270"
       transform="scale(2.9942119)"><path
         d="m 13,641 h 96 c 0.78793,0 1.56829,0.0768 2.34108,0.23059 0.77279,0.15369 1.52316,0.38129 2.25111,0.6828 0.72795,0.30151 1.41949,0.67114 2.07463,1.10889 0.65515,0.43774 1.2613,0.93518 1.81846,1.49237 0.55715,0.55713 1.05459,1.16327 1.49234,1.81842 0.43775,0.65515 0.80739,1.34668 1.10892,2.07464 0.30154,0.72797 0.52916,1.4784 0.68288,2.25116 C 120.92314,651.4317 121,652.2121 121,653 v 56 c 0,0.7879 -0.0769,1.56824 -0.23058,2.34106 -0.15372,0.77277 -0.38134,1.52314 -0.68287,2.2511 -0.30154,0.72797 -0.67118,1.4195 -1.10893,2.07465 -0.43775,0.65509 -0.93519,1.26123 -1.49234,1.81842 -0.55716,0.55719 -1.16331,1.05463 -1.81845,1.49231 -0.65514,0.43774 -1.34669,0.80737 -2.07464,1.10895 -0.72795,0.30157 -1.47832,0.52917 -2.25111,0.68292 C 110.56829,720.92316 109.78793,721 109,721 H 13 c -0.787931,0 -1.568293,-0.0768 -2.341085,-0.23059 -0.7727913,-0.15375 -1.5231633,-0.38135 -2.2511172,-0.68286 -0.7279534,-0.30158 -1.4195008,-0.67121 -2.0746417,-1.10901 -0.6551404,-0.43768 -1.2612867,-0.93512 -1.818438,-1.49231 -0.5571516,-0.55719 -1.0546027,-1.16333 -1.4923537,-1.81842 -0.4377511,-0.65515 -0.807391,-1.34668 -1.108919,-2.07465 C 1.6119173,712.8642 1.3842943,712.11383 1.2305765,711.34106 1.0768588,710.56824 0.99999994,709.7879 1,709 v -56 c -6e-8,-0.7879 0.076859,-1.5683 0.2305765,-2.34113 0.1537178,-0.77276 0.3813408,-1.52319 0.6828689,-2.25116 0.301528,-0.72796 0.6711679,-1.41949 1.108919,-2.07464 0.437751,-0.65515 0.9352021,-1.26129 1.4923537,-1.81842 0.5571513,-0.55719 1.1632976,-1.05463 1.818438,-1.49237 0.6551409,-0.43775 1.3466883,-0.80738 2.0746417,-1.10889 0.7279539,-0.30151 1.4783259,-0.52911 2.2511172,-0.6828 C 11.431707,641.07684 12.212069,641 13,641 Z"
         style="fill:#ffffff;fill-opacity:1;fill-rule:nonzero;stroke:none"
         id="path272" /><path
         d="m 13,641 h 96 c 0.78793,0 1.56829,0.0768 2.34108,0.23059 0.77279,0.15369 1.52316,0.38129 2.25111,0.6828 0.72795,0.30151 1.41949,0.67114 2.07463,1.10889 0.65515,0.43774 1.2613,0.93518 1.81846,1.49237 0.55715,0.55713 1.05459,1.16327 1.49234,1.81842 0.43775,0.65515 0.80739,1.34668 1.10892,2.07464 0.30154,0.72797 0.52916,1.4784 0.68288,2.25116 C 120.92314,651.4317 121,652.2121 121,653 v 56 c 0,0.7879 -0.0769,1.56824 -0.23058,2.34106 -0.15372,0.77277 -0.38134,1.52314 -0.68287,2.2511 -0.30154,0.72797 -0.67118,1.4195 -1.10893,2.07465 -0.43775,0.65509 -0.93519,1.26123 -1.49234,1.81842 -0.55716,0.55719 -1.16331,1.05463 -1.81845,1.49231 -0.65514,0.43774 -1.34669,0.80737 -2.07464,1.10895 -0.72795,0.30157 -1.47832,0.52917 -2.25111,0.68292 C 110.56829,720.92316 109.78793,721 109,721 H 13 c -0.787931,0 -1.568293,-0.0768 -2.341085,-0.23059 -0.7727913,-0.15375 -1.5231633,-0.38135 -2.2511172,-0.68286 -0.7279534,-0.30158 -1.4195008,-0.67121 -2.0746417,-1.10901 -0.6551404,-0.43768 -1.2612867,-0.93512 -1.818438,-1.49231 -0.5571516,-0.55719 -1.0546027,-1.16333 -1.4923537,-1.81842 -0.4377511,-0.65515 -0.807391,-1.34668 -1.108919,-2.07465 C 1.6119173,712.8642 1.3842943,712.11383 1.2305765,711.34106 1.0768588,710.56824 0.99999994,709.7879 1,709 v -56 c -6e-8,-0.7879 0.076859,-1.5683 0.2305765,-2.34113 0.1537178,-0.77276 0.3813408,-1.52319 0.6828689,-2.25116 0.301528,-0.72796 0.6711679,-1.41949 1.108919,-2.07464 0.437751,-0.65515 0.9352021,-1.26129 1.4923537,-1.81842 0.5571513,-0.55719 1.1632976,-1.05463 1.818438,-1.49237 0.6551409,-0.43775 1.3466883,-0.80738 2.0746417,-1.10889 0.7279539,-0.30151 1.4783259,-0.52911 2.2511172,-0.6828 C 11.431707,641.07684 12.212069,641 13,641 Z"
         style="fill:none;stroke:#000000;stroke-width:1;stroke-linecap:butt;stroke-linejoin:miter;stroke-miterlimit:10;stroke-dasharray:none;stroke-opacity:1"
         id="path274" /></g><g
       id="g282"
       transform="scale(2.9942119)"><path
         d="m 653,481 h 96 c 0.7879,0 1.56824,0.0768 2.341,0.23056 0.77277,0.15372 1.52314,0.38132 2.2511,0.68286 0.72797,0.30152 1.4195,0.67114 2.07471,1.10889 0.65515,0.43777 1.26129,0.93521 1.81842,1.49237 0.55713,0.55713 1.05456,1.16327 1.49231,1.81839 0.43768,0.65515 0.80737,1.34671 1.10895,2.07464 0.30151,0.72797 0.52911,1.47837 0.68286,2.25116 0.15368,0.7728 0.23059,1.5532 0.23065,2.34113 v 56 c -6e-5,0.7879 -0.077,1.56824 -0.23071,2.341 -0.15369,0.77277 -0.38129,1.5232 -0.6828,2.25116 -0.30158,0.72791 -0.67127,1.41944 -1.10895,2.07459 -0.43775,0.65509 -0.93518,1.26129 -1.49231,1.81848 -0.55713,0.55713 -1.16327,1.05456 -1.81848,1.49237 -0.65515,0.43768 -1.34668,0.80731 -2.07465,1.10889 -0.72796,0.30157 -1.47833,0.52917 -2.2511,0.68292 -0.77276,0.15369 -1.5531,0.23053 -2.341,0.23059 h -96 c -0.7879,-6e-5 -1.5683,-0.0769 -2.34113,-0.23059 -0.77276,-0.15375 -1.52319,-0.38135 -2.25116,-0.68292 -0.72796,-0.30158 -1.41949,-0.67121 -2.07464,-1.10889 -0.65515,-0.43781 -1.26129,-0.93524 -1.81842,-1.49237 -0.55719,-0.55719 -1.05463,-1.16339 -1.49237,-1.81848 -0.43775,-0.65515 -0.80738,-1.34668 -1.10889,-2.07459 -0.30157,-0.72796 -0.52917,-1.47839 -0.68286,-2.25116 C 641.07684,550.56824 641,549.7879 641,549 v -56 c 0,-0.78793 0.0768,-1.56833 0.23053,-2.34113 0.15369,-0.77279 0.38129,-1.52319 0.68286,-2.25116 0.30151,-0.72793 0.67114,-1.41949 1.10889,-2.07464 0.43774,-0.65512 0.93518,-1.26126 1.49237,-1.81839 0.55713,-0.55716 1.16327,-1.0546 1.81842,-1.49234 0.65515,-0.43778 1.34668,-0.8074 2.07464,-1.10892 0.72797,-0.30154 1.4784,-0.52914 2.25116,-0.68286 C 651.4317,481.07684 652.2121,481 653,481 Z"
         style="fill:#ffffff;fill-opacity:1;fill-rule:nonzero;stroke:none"
         id="path284" /><path
         d="m 653,481 h 96 c 0.7879,0 1.56824,0.0768 2.341,0.23056 0.77277,0.15372 1.52314,0.38132 2.2511,0.68286 0.72797,0.30152 1.4195,0.67114 2.07471,1.10889 0.65515,0.43777 1.26129,0.93521 1.81842,1.49237 0.55713,0.55713 1.05456,1.16327 1.49231,1.81839 0.43768,0.65515 0.80737,1.34671 1.10895,2.07464 0.30151,0.72797 0.52911,1.47837 0.68286,2.25116 0.15368,0.7728 0.23059,1.5532 0.23065,2.34113 v 56 c -6e-5,0.7879 -0.077,1.56824 -0.23071,2.341 -0.15369,0.77277 -0.38129,1.5232 -0.6828,2.25116 -0.30158,0.72791 -0.67127,1.41944 -1.10895,2.07459 -0.43775,0.65509 -0.93518,1.26129 -1.49231,1.81848 -0.55713,0.55713 -1.16327,1.05456 -1.81848,1.49237 -0.65515,0.43768 -1.34668,0.80731 -2.07465,1.10889 -0.72796,0.30157 -1.47833,0.52917 -2.2511,0.68292 -0.77276,0.15369 -1.5531,0.23053 -2.341,0.23059 h -96 c -0.7879,-6e-5 -1.5683,-0.0769 -2.34113,-0.23059 -0.77276,-0.15375 -1.52319,-0.38135 -2.25116,-0.68292 -0.72796,-0.30158 -1.41949,-0.67121 -2.07464,-1.10889 -0.65515,-0.43781 -1.26129,-0.93524 -1.81842,-1.49237 -0.55719,-0.55719 -1.05463,-1.16339 -1.49237,-1.81848 -0.43775,-0.65515 -0.80738,-1.34668 -1.10889,-2.07459 -0.30157,-0.72796 -0.52917,-1.47839 -0.68286,-2.25116 C 641.07684,550.56824 641,549.7879 641,549 v -56 c 0,-0.78793 0.0768,-1.56833 0.23053,-2.34113 0.15369,-0.77279 0.38129,-1.52319 0.68286,-2.25116 0.30151,-0.72793 0.67114,-1.41949 1.10889,-2.07464 0.43774,-0.65512 0.93518,-1.26126 1.49237,-1.81839 0.55713,-0.55716 1.16327,-1.0546 1.81842,-1.49234 0.65515,-0.43778 1.34668,-0.8074 2.07464,-1.10892 0.72797,-0.30154 1.4784,-0.52914 2.25116,-0.68286 C 651.4317,481.07684 652.2121,481 653,481 Z"
         style="fill:none;stroke:#000000;stroke-width:1;stroke-linecap:butt;stroke-linejoin:miter;stroke-miterlimit:10;stroke-dasharray:none;stroke-opacity:1"
         id="path286" /></g><text
       xml:space="preserve"
       style="font-size:66.6666px;line-height:1.25;font-family:sans-serif;-inkscape-font-specification:'sans-serif, Normal';font-variant-ligatures:none;text-align:center;text-anchor:middle;fill:#008000;stroke-width:3.125"
       x="2336.3574"
       y="105.35293"
       id="text7133"><tspan
         sodipodi:role="line"
         id="tspan7131"
         style="fill:#008000;stroke-width:3.125"
         x="2336.3574"
         y="105.35293">(1,0)</tspan><tspan
         sodipodi:role="line"
         style="fill:#008000;stroke-width:3.125"
         x="2336.3574"
         y="188.68619"
         id="tspan7135">1</tspan></text><text
       xml:space="preserve"
       style="font-size:66.6666px;line-height:1.25;font-family:sans-serif;-inkscape-font-specification:'sans-serif, Normal';font-variant-ligatures:none;text-align:center;text-anchor:middle;stroke-width:3.125"
       x="1137.1927"
       y="584.79059"
       id="text7133-1"><tspan
         sodipodi:role="line"
         id="tspan7131-6"
         style="stroke-width:3.125"
         x="1137.1927"
         y="584.79059">(2,1)</tspan><tspan
         sodipodi:role="line"
         style="stroke-width:3.125"
         x="1137.1927"
         y="668.12384"
         id="tspan7135-3">0</tspan></text><text
       xml:space="preserve"
       style="font-size:66.6666px;line-height:1.25;font-family:sans-serif;-inkscape-font-specification:'sans-serif, Normal';font-variant-ligatures:none;text-align:center;text-anchor:middle;stroke-width:3.125"
       x="2339.4563"
       y="584.79065"
       id="text7133-6"><tspan
         sodipodi:role="line"
         style="stroke-width:3.125"
         x="2339.4563"
         y="584.79065"
         id="tspan11452">(3,1)</tspan><tspan
         sodipodi:role="line"
         style="stroke-width:3.125"
         x="2339.4563"
         y="668.1239"
         id="tspan16516">0</tspan></text><text
       xml:space="preserve"
       style="font-size:66.6666px;line-height:1.25;font-family:sans-serif;-inkscape-font-specification:'sans-serif, Normal';font-variant-ligatures:none;text-align:center;text-anchor:middle;stroke-width:3.125"
       x="2097.7642"
       y="1061.4731"
       id="text7133-6-1"><tspan
         sodipodi:role="line"
         style="stroke-width:3.125"
         x="2097.7642"
         y="1061.4731"
         id="tspan11452-2">(4,0)</tspan><tspan
         sodipodi:role="line"
         style="stroke-width:3.125"
         x="2097.7642"
         y="1144.8064"
         id="tspan16516-5">0</tspan></text><text
       xml:space="preserve"
       style="font-size:66.6666px;line-height:1.25;font-family:sans-serif;-inkscape-font-specification:'sans-serif, Normal';font-variant-ligatures:none;text-align:center;text-anchor:middle;stroke-width:3.125"
       x="1140.2914"
       y="1064.5718"
       id="text7133-6-1-0"><tspan
         sodipodi:role="line"
         style="stroke-width:3.125"
         x="1140.2914"
         y="1064.5718"
         id="tspan11452-2-9">(4,0)</tspan><tspan
         sodipodi:role="line"
         style="stroke-width:3.125"
         x="1140.2914"
         y="1147.905"
         id="tspan16516-5-3">0</tspan></text><text
       xml:space="preserve"
       style="font-size:66.6666px;line-height:1.25;font-family:sans-serif;-inkscape-font-specification:'sans-serif, Normal';font-variant-ligatures:none;text-align:center;text-anchor:middle;fill:#ff0000;stroke-width:3.125"
       x="660.00562"
       y="1061.4731"
       id="text7133-6-1-5"><tspan
         sodipodi:role="line"
         style="fill:#ff0000;stroke-width:3.125"
         x="660.00562"
         y="1061.4731"
         id="tspan11452-2-3">(3,0)</tspan><tspan
         sodipodi:role="line"
         style="fill:#ff0000;stroke-width:3.125"
         x="660.00562"
         y="1144.8064"
         id="tspan16516-5-6">1</tspan></text><text
       xml:space="preserve"
       style="font-size:66.6666px;line-height:1.25;font-family:sans-serif;-inkscape-font-specification:'sans-serif, Normal';font-variant-ligatures:none;text-align:center;text-anchor:middle;fill:#ff0000;stroke-width:3.125"
       x="179.71986"
       y="1545.3621"
       id="text7133-6-1-5-9"><tspan
         sodipodi:role="line"
         style="fill:#ff0000;stroke-width:3.125"
         x="179.71986"
         y="1545.3621"
         id="tspan11452-2-3-7">(4,1)</tspan><tspan
         sodipodi:role="line"
         style="fill:#ff0000;stroke-width:3.125"
         x="179.71986"
         y="1628.6953"
         id="tspan16516-5-6-1">1</tspan></text><text
       xml:space="preserve"
       style="font-size:66.6666px;line-height:1.25;font-family:sans-serif;-inkscape-font-specification:'sans-serif, Normal';font-variant-ligatures:none;text-align:center;text-anchor:middle;fill:#008000;stroke-width:3.125"
       x="3179.1816"
       y="590.98785"
       id="text7133-3"><tspan
         sodipodi:role="line"
         style="fill:#008000;stroke-width:3.125"
         x="3179.1816"
         y="590.98785"
         id="tspan20642">(4,1)</tspan><tspan
         sodipodi:role="line"
         style="fill:#008000;stroke-width:3.125"
         x="3179.1816"
         y="674.32111"
         id="tspan7135-1">1</tspan></text><text
       xml:space="preserve"
       style="font-size:66.6666px;line-height:1.25;font-family:sans-serif;-inkscape-font-specification:'sans-serif, Normal';font-variant-ligatures:none;text-align:center;text-anchor:middle;fill:#008000;stroke-width:3.125"
       x="3179.1816"
       y="1065.0763"
       id="text7133-2"><tspan
         sodipodi:role="line"
         id="tspan7131-93"
         style="fill:#008000;stroke-width:3.125"
         x="3179.1816"
         y="1065.0763">(5+,0)</tspan><tspan
         sodipodi:role="line"
         style="fill:#008000;stroke-width:3.125"
         x="3179.1816"
         y="1148.4095"
         id="tspan7135-32">1</tspan></text><text
       xml:space="preserve"
       style="font-size:66.6666px;line-height:1.25;font-family:sans-serif;-inkscape-font-specification:'sans-serif, Normal';font-variant-ligatures:none;text-align:center;text-anchor:middle;fill:#000000;stroke-width:3.125"
       x="1146.4886"
       y="1542.2634"
       id="text7133-2-8"><tspan
         sodipodi:role="line"
         id="tspan7131-93-4"
         style="fill:#000000;stroke-width:3.125"
         x="1146.4886"
         y="1542.2634">(5+,1)</tspan><tspan
         sodipodi:role="line"
         style="fill:#000000;stroke-width:3.125"
         x="1146.4886"
         y="1625.5967"
         id="tspan7135-32-16">0</tspan></text><text
       xml:space="preserve"
       style="font-size:66.6666px;line-height:1.25;font-family:sans-serif;-inkscape-font-specification:'sans-serif, Normal';font-variant-ligatures:none;text-align:center;text-anchor:middle;stroke-width:3.125"
       x="2103.9614"
       y="1544.8575"
       id="text7133-2-8-3"><tspan
         sodipodi:role="line"
         id="tspan7131-93-4-0"
         style="stroke-width:3.125"
         x="2103.9614"
         y="1544.8575">(5+,1)</tspan><tspan
         sodipodi:role="line"
         style="fill:#000000;stroke-width:3.125"
         x="2103.9614"
         y="1628.1908"
         id="tspan7135-32-16-1">0</tspan></text><text
       xml:space="preserve"
       style="font-size:66.6666px;line-height:1.25;font-family:sans-serif;-inkscape-font-specification:'sans-serif, Normal';font-variant-ligatures:none;text-align:center;text-anchor:middle;fill:#ff0000;stroke-width:3.125"
       x="179.71982"
       y="2031.8451"
       id="text7133-2-9"><tspan
         sodipodi:role="line"
         id="tspan7131-93-2"
         style="fill:#ff0000;stroke-width:3.125"
         x="179.71982"
         y="2031.8451">(5+,0)</tspan><tspan
         sodipodi:role="line"
         style="fill:#ff0000;stroke-width:3.125"
         x="179.71982"
         y="2115.1785"
         id="tspan7135-32-3">1</tspan></text><text
       xml:space="preserve"
       style="font-size:66.6666px;line-height:1.25;font-family:sans-serif;-inkscape-font-specification:'sans-serif, Normal';font-variant-ligatures:none;text-align:center;text-anchor:middle;fill:#ff0000;stroke-width:3.125"
       x="660.00555"
       y="1545.3621"
       id="text7133-2-9-9"><tspan
         sodipodi:role="line"
         id="tspan7131-93-2-1"
         style="fill:#ff0000;stroke-width:3.125"
         x="660.00555"
         y="1545.3621">(5+,1)</tspan><tspan
         sodipodi:role="line"
         style="fill:#ff0000;stroke-width:3.125"
         x="660.00555"
         y="1628.6953"
         id="tspan7135-32-3-1">0</tspan></text><text
       xml:space="preserve"
       style="font-size:66.6666px;line-height:1.25;font-family:sans-serif;-inkscape-font-specification:'sans-serif, Normal';font-variant-ligatures:none;text-align:center;text-anchor:middle;fill:#ff0000;stroke-width:3.125"
       x="2581.1484"
       y="1065.0763"
       id="text7133-2-3"><tspan
         sodipodi:role="line"
         id="tspan7131-93-8"
         style="fill:#ff0000;stroke-width:3.125"
         x="2581.1484"
         y="1065.0763">(5+,0)</tspan><tspan
         sodipodi:role="line"
         style="fill:#ff0000;stroke-width:3.125"
         x="2581.1484"
         y="1148.4095"
         id="tspan7135-32-1">1</tspan></text><text
       xml:space="preserve"
       style="font-size:66.6666px;line-height:1.25;font-family:sans-serif;-inkscape-font-specification:'sans-serif, Normal';font-variant-ligatures:none;text-align:center;text-anchor:middle;fill:#ff0000;stroke-width:3.125"
       x="1620.5769"
       y="1065.0763"
       id="text7133-2-3-2"><tspan
         sodipodi:role="line"
         id="tspan7131-93-8-3"
         style="fill:#ff0000;stroke-width:3.125"
         x="1620.5769"
         y="1065.0763">(5,0)</tspan><tspan
         sodipodi:role="line"
         style="fill:#ff0000;stroke-width:3.125"
         x="1620.5769"
         y="1148.4095"
         id="tspan7135-32-1-3">1</tspan></text><text
       xml:space="preserve"
       style="font-size:66.6666px;line-height:1.25;font-family:sans-serif;-inkscape-font-specification:'sans-serif, Normal';font-variant-ligatures:none;text-align:end;text-anchor:end;stroke-width:3.125;fill:#ff0000"
       x="3319.5129"
       y="98.171867"
       id="text3235"><tspan
         sodipodi:role="line"
         id="tspan3233"
         style="stroke-width:3.125;fill:#ff0000"
         x="3319.5129"
         y="98.171867">pruned nodes</tspan></text><text
       xml:space="preserve"
       style="font-size:66.6666px;line-height:1.25;font-family:sans-serif;-inkscape-font-specification:'sans-serif, Normal';font-variant-ligatures:none;text-align:end;text-anchor:end;fill:#008000;stroke-width:3.125"
       x="3322.9417"
       y="173.7607"
       id="text3235-7"><tspan
         sodipodi:role="line"
         id="tspan3233-2"
         style="fill:#008000;stroke-width:3.125"
         x="3322.9417"
         y="173.7607">optimal path</tspan></text></g></svg>
