<?xml version="1.0" encoding="UTF-8" standalone="no"?>
<!-- Created with Inkscape (http://www.inkscape.org/) -->

<svg
   version="1.1"
   id="svg2"
   xml:space="preserve"
   width="441.828"
   height="161.20799"
   viewBox="0 0 441.82802 161.208"
   sodipodi:docname="handedness3.svg"
   inkscape:version="1.1 (c68e22c387, 2021-05-23)"
   xmlns:inkscape="http://www.inkscape.org/namespaces/inkscape"
   xmlns:sodipodi="http://sodipodi.sourceforge.net/DTD/sodipodi-0.dtd"
   xmlns="http://www.w3.org/2000/svg"
   xmlns:svg="http://www.w3.org/2000/svg"><defs
     id="defs6" /><sodipodi:namedview
     id="namedview4"
     pagecolor="#ffffff"
     bordercolor="#999999"
     borderopacity="1"
     inkscape:pageshadow="0"
     inkscape:pageopacity="0"
     inkscape:pagecheckerboard="0"
     showgrid="false"
     inkscape:zoom="2.56"
     inkscape:cx="229.6875"
     inkscape:cy="79.101563"
     inkscape:window-width="1920"
     inkscape:window-height="1009"
     inkscape:window-x="-8"
     inkscape:window-y="-8"
     inkscape:window-maximized="1"
     inkscape:current-layer="g8" /><g
     id="g8"
     inkscape:groupmode="layer"
     inkscape:label="ink_ext_XXXXXX"
     transform="matrix(1.3333333,0,0,-1.3333333,300.00001,161.204)"><g
       id="g10"
       transform="scale(0.1)"><path
         d="M 194.555,667.418 401.891,242.109"
         style="fill:none;stroke:#231f20;stroke-width:5;stroke-linecap:butt;stroke-linejoin:miter;stroke-miterlimit:10;stroke-dasharray:none;stroke-opacity:1"
         id="path12" /><path
         d="m 406.461,266.77 16.98,-72.481 -46.628,58.027"
         style="fill:#231f20;fill-opacity:1;fill-rule:evenodd;stroke:none"
         id="path14" /><path
         d="M 876.383,664.918 669.047,239.609"
         style="fill:none;stroke:#231f20;stroke-width:5;stroke-linecap:butt;stroke-linejoin:miter;stroke-miterlimit:10;stroke-dasharray:none;stroke-opacity:1"
         id="path16" /><path
         d="m 664.477,264.27 -16.981,-72.481 46.629,58.027"
         style="fill:#231f20;fill-opacity:1;fill-rule:evenodd;stroke:none"
         id="path18" /><path
         d="M 537.953,420.852 V 265.41"
         style="fill:none;stroke:#231f20;stroke-width:5;stroke-linecap:butt;stroke-linejoin:miter;stroke-miterlimit:10;stroke-dasharray:none;stroke-opacity:1"
         id="path20" /><path
         d="M 552.867,285.566 536.371,212.98 519.879,285.566"
         style="fill:#231f20;fill-opacity:1;fill-rule:evenodd;stroke:none"
         id="path22" /><path
         d="m 365.215,674.715 c 0,60.066 -81.25,108.812 -181.36,108.812 C 83.75,783.527 2.5,734.781 2.5,674.715 c 0,-60.067 81.25,-108.817 181.355,-108.817 100.11,0 181.36,48.75 181.36,108.817 v 0"
         style="fill:#ffffff;fill-opacity:1;fill-rule:evenodd;stroke:none"
         id="path24" /><path
         d="m 365.215,674.715 c 0,60.066 -81.25,108.812 -181.36,108.812 C 83.75,783.527 2.5,734.781 2.5,674.715 c 0,-60.067 81.25,-108.817 181.355,-108.817 100.11,0 181.36,48.75 181.36,108.817 z"
         style="fill:none;stroke:#231f20;stroke-width:5;stroke-linecap:butt;stroke-linejoin:miter;stroke-miterlimit:10;stroke-dasharray:none;stroke-opacity:1"
         id="path26" /><g
         id="g28"
         transform="scale(10)"><text
           transform="matrix(1,0,0,-1,4.37188,65.832)"
           style="font-style:italic;font-variant:normal;font-size:10.156px;font-family:'Times New Roman';-inkscape-font-specification:Times-Italic;writing-mode:lr-tb;fill:#231f20;fill-opacity:1;fill-rule:nonzero;stroke:none"
           id="text32"><tspan
             x="0"
             y="0"
             id="tspan30">H</tspan></text><text
           transform="matrix(1,0,0,-1,11.98946,62.94919)"
           style="font-style:italic;font-variant:normal;font-size:7.10921px;font-family:'Times New Roman';-inkscape-font-specification:Times-Italic;writing-mode:lr-tb;fill:#231f20;fill-opacity:1;fill-rule:nonzero;stroke:none"
           id="text36"><tspan
             x="0 5.133791 8.6883965 10.663496 14.218102 17.373373"
             y="0"
             sodipodi:role="line"
             id="tspan34">mother</tspan></text></g><path
         d="m 1061.21,674.715 c 0,60.066 -81.245,108.812 -181.362,108.812 -100.106,0 -181.348,-48.746 -181.348,-108.812 0,-60.067 81.242,-108.817 181.348,-108.817 100.117,0 181.362,48.75 181.362,108.817 v 0"
         style="fill:#ffffff;fill-opacity:1;fill-rule:evenodd;stroke:none"
         id="path38" /><path
         d="m 1061.21,674.715 c 0,60.066 -81.245,108.812 -181.362,108.812 -100.106,0 -181.348,-48.746 -181.348,-108.812 0,-60.067 81.242,-108.817 181.348,-108.817 100.117,0 181.362,48.75 181.362,108.817 z"
         style="fill:none;stroke:#231f20;stroke-width:5;stroke-linecap:butt;stroke-linejoin:miter;stroke-miterlimit:10;stroke-dasharray:none;stroke-opacity:1"
         id="path40" /><g
         id="g42"
         transform="scale(10)"><text
           transform="matrix(1,0,0,-1,75.7859,66.082)"
           style="font-style:italic;font-variant:normal;font-size:10.156px;font-family:'Times New Roman';-inkscape-font-specification:Times-Italic;writing-mode:lr-tb;fill:#231f20;fill-opacity:1;fill-rule:nonzero;stroke:none"
           id="text46"><tspan
             x="0"
             y="0"
             id="tspan44">H</tspan></text><text
           transform="matrix(1,0,0,-1,83.39528,63.19919)"
           style="font-style:italic;font-variant:normal;font-size:7.10921px;font-family:'Times New Roman';-inkscape-font-specification:Times-Italic;writing-mode:lr-tb;fill:#231f20;fill-opacity:1;fill-rule:nonzero;stroke:none"
           id="text50"><tspan
             x="0 1.9755913 5.5301962 7.5057878 11.060392 14.215668"
             y="0"
             sodipodi:role="line"
             id="tspan48">father</tspan></text></g><path
         d="m 713.207,111.32 c 0,60.071 -81.25,108.817 -181.352,108.817 -100.109,0 -181.351,-48.746 -181.351,-108.817 0,-60.07 81.242,-108.82 181.351,-108.82 100.102,0 181.352,48.75 181.352,108.82 v 0"
         style="fill:#ffffff;fill-opacity:1;fill-rule:evenodd;stroke:none"
         id="path52" /><path
         d="m 713.207,111.32 c 0,60.071 -81.25,108.817 -181.352,108.817 -100.109,0 -181.351,-48.746 -181.351,-108.817 0,-60.07 81.242,-108.82 181.351,-108.82 100.102,0 181.352,48.75 181.352,108.82 z"
         style="fill:none;stroke:#231f20;stroke-width:5;stroke-linecap:butt;stroke-linejoin:miter;stroke-miterlimit:10;stroke-dasharray:none;stroke-opacity:1"
         id="path54" /><g
         id="g56"
         transform="scale(10)"><text
           transform="matrix(1,0,0,-1,42.4895,8.99609)"
           style="font-style:italic;font-variant:normal;font-size:10.156px;font-family:'Times New Roman';-inkscape-font-specification:Times-Italic;writing-mode:lr-tb;fill:#231f20;fill-opacity:1;fill-rule:nonzero;stroke:none"
           id="text60"><tspan
             x="0"
             y="0"
             id="tspan58">H</tspan></text><text
           transform="matrix(1,0,0,-1,49.34848,6.85586)"
           style="font-style:italic;font-variant:normal;font-size:7.10921px;font-family:'Times New Roman';-inkscape-font-specification:Times-Italic;writing-mode:lr-tb;fill:#231f20;fill-opacity:1;fill-rule:nonzero;stroke:none"
           id="text64"><tspan
             x="0 3.1564891 6.7110944 8.685935 10.661526"
             y="0"
             sodipodi:role="line"
             id="tspan62">child</tspan></text></g><path
         d="m 365.215,1097.71 c 0,60.07 -81.25,108.82 -181.36,108.82 C 83.75,1206.53 2.5,1157.78 2.5,1097.71 c 0,-60.06 81.25,-108.812 181.355,-108.812 100.11,0 181.36,48.752 181.36,108.812 v 0"
         style="fill:#ffffff;fill-opacity:1;fill-rule:evenodd;stroke:none"
         id="path66" /><path
         d="m 365.215,1097.71 c 0,60.07 -81.25,108.82 -181.36,108.82 C 83.75,1206.53 2.5,1157.78 2.5,1097.71 c 0,-60.06 81.25,-108.812 181.355,-108.812 100.11,0 181.36,48.752 181.36,108.812 z"
         style="fill:none;stroke:#231f20;stroke-width:5;stroke-linecap:butt;stroke-linejoin:miter;stroke-miterlimit:10;stroke-dasharray:none;stroke-opacity:1"
         id="path68" /><g
         id="g70"
         transform="scale(10)"><text
           transform="matrix(1,0,0,-1,11.9895,105.52)"
           style="font-style:italic;font-variant:normal;font-size:7.10921px;font-family:'Times New Roman';-inkscape-font-specification:Times-Italic;writing-mode:lr-tb;fill:#231f20;fill-opacity:1;fill-rule:nonzero;stroke:none"
           id="text74"><tspan
             x="0 5.133791 8.6883965 10.663496 14.218102 17.373373"
             y="0"
             sodipodi:role="line"
             id="tspan72">mother</tspan></text><text
           transform="matrix(1,0,0,-1,4.37192,108.395)"
           style="font-style:italic;font-variant:normal;font-size:10.156px;font-family:'Times New Roman';-inkscape-font-specification:Times-Italic;writing-mode:lr-tb;fill:#231f20;fill-opacity:1;fill-rule:nonzero;stroke:none"
           id="text78"><tspan
             x="0"
             y="0"
             id="tspan76">G</tspan></text></g><path
         d="m 1061.21,1097.71 c 0,60.07 -81.245,108.82 -181.362,108.82 -100.106,0 -181.348,-48.75 -181.348,-108.82 0,-60.06 81.242,-108.812 181.348,-108.812 100.117,0 181.362,48.752 181.362,108.812 v 0"
         style="fill:#ffffff;fill-opacity:1;fill-rule:evenodd;stroke:none"
         id="path80" /><path
         d="m 1061.21,1097.71 c 0,60.07 -81.245,108.82 -181.362,108.82 -100.106,0 -181.348,-48.75 -181.348,-108.82 0,-60.06 81.242,-108.812 181.348,-108.812 100.117,0 181.362,48.752 181.362,108.812 z"
         style="fill:none;stroke:#231f20;stroke-width:5;stroke-linecap:butt;stroke-linejoin:miter;stroke-miterlimit:10;stroke-dasharray:none;stroke-opacity:1"
         id="path82" /><g
         id="g84"
         transform="scale(10)"><text
           transform="matrix(1,0,0,-1,82.8953,105.77)"
           style="font-style:italic;font-variant:normal;font-size:7.10921px;font-family:'Times New Roman';-inkscape-font-specification:Times-Italic;writing-mode:lr-tb;fill:#231f20;fill-opacity:1;fill-rule:nonzero;stroke:none"
           id="text88"><tspan
             x="0 1.9755913 5.5301962 7.5057878 11.060392 14.215668"
             y="0"
             sodipodi:role="line"
             id="tspan86">father</tspan></text><text
           transform="matrix(1,0,0,-1,75.28592,108.645)"
           style="font-style:italic;font-variant:normal;font-size:10.156px;font-family:'Times New Roman';-inkscape-font-specification:Times-Italic;writing-mode:lr-tb;fill:#231f20;fill-opacity:1;fill-rule:nonzero;stroke:none"
           id="text92"><tspan
             x="0"
             y="0"
             id="tspan90">G</tspan></text></g><path
         d="m 713.207,459.316 c 0,60.071 -81.25,108.821 -181.352,108.821 -100.109,0 -181.351,-48.75 -181.351,-108.821 0,-60.066 81.242,-108.808 181.351,-108.808 100.102,0 181.352,48.742 181.352,108.808 v 0"
         style="fill:#ffffff;fill-opacity:1;fill-rule:evenodd;stroke:none"
         id="path94" /><path
         d="m 713.207,459.316 c 0,60.071 -81.25,108.821 -181.352,108.821 -100.109,0 -181.351,-48.75 -181.351,-108.821 0,-60.066 81.242,-108.808 181.351,-108.808 100.102,0 181.352,48.742 181.352,108.808 z"
         style="fill:none;stroke:#231f20;stroke-width:5;stroke-linecap:butt;stroke-linejoin:miter;stroke-miterlimit:10;stroke-dasharray:none;stroke-opacity:1"
         id="path96" /><g
         id="g98"
         transform="scale(10)"><text
           transform="matrix(1,0,0,-1,49.0984,42.184)"
           style="font-style:italic;font-variant:normal;font-size:7.10921px;font-family:'Times New Roman';-inkscape-font-specification:Times-Italic;writing-mode:lr-tb;fill:#231f20;fill-opacity:1;fill-rule:nonzero;stroke:none"
           id="text102"><tspan
             x="0 3.1564891 6.7110944 8.685935 10.661526"
             y="0"
             sodipodi:role="line"
             id="tspan100">child</tspan></text><text
           transform="matrix(1,0,0,-1,42.23942,43.81681)"
           style="font-style:italic;font-variant:normal;font-size:10.156px;font-family:'Times New Roman';-inkscape-font-specification:Times-Italic;writing-mode:lr-tb;fill:#231f20;fill-opacity:1;fill-rule:nonzero;stroke:none"
           id="text106"><tspan
             x="0"
             y="0"
             id="tspan104">G</tspan></text></g><path
         d="M 183.379,991.398 V 835.965"
         style="fill:none;stroke:#231f20;stroke-width:5;stroke-linecap:butt;stroke-linejoin:miter;stroke-miterlimit:10;stroke-dasharray:none;stroke-opacity:1"
         id="path108" /><path
         d="m 198.297,856.109 -16.488,-72.582 -16.5,72.582"
         style="fill:#231f20;fill-opacity:1;fill-rule:evenodd;stroke:none"
         id="path110" /><path
         d="M 881.43,988.898 V 833.461"
         style="fill:none;stroke:#231f20;stroke-width:5;stroke-linecap:butt;stroke-linejoin:miter;stroke-miterlimit:10;stroke-dasharray:none;stroke-opacity:1"
         id="path112" /><path
         d="m 896.344,853.613 -16.496,-72.586 -16.493,72.586"
         style="fill:#231f20;fill-opacity:1;fill-rule:evenodd;stroke:none"
         id="path114" /></g><g
       id="g3639"
       transform="matrix(0.1,0,0,0.1,-112.5,-0.00299698)"><path
         d="M 194.555,667.418 401.891,242.109"
         style="fill:none;stroke:#231f20;stroke-width:5;stroke-linecap:butt;stroke-linejoin:miter;stroke-miterlimit:10;stroke-dasharray:none;stroke-opacity:1"
         id="path3641" /><path
         d="m 406.461,266.77 16.98,-72.481 -46.628,58.027"
         style="fill:#231f20;fill-opacity:1;fill-rule:evenodd;stroke:none"
         id="path3643" /><path
         d="M 876.383,664.918 669.047,239.609"
         style="fill:none;stroke:#231f20;stroke-width:5;stroke-linecap:butt;stroke-linejoin:miter;stroke-miterlimit:10;stroke-dasharray:none;stroke-opacity:1"
         id="path3645" /><path
         d="m 664.477,264.27 -16.981,-72.481 46.629,58.027"
         style="fill:#231f20;fill-opacity:1;fill-rule:evenodd;stroke:none"
         id="path3647" /><path
         d="M 537.953,420.852 V 265.41"
         style="fill:none;stroke:#231f20;stroke-width:5;stroke-linecap:butt;stroke-linejoin:miter;stroke-miterlimit:10;stroke-dasharray:none;stroke-opacity:1"
         id="path3649" /><path
         d="M 552.867,285.566 536.371,212.98 519.879,285.566"
         style="fill:#231f20;fill-opacity:1;fill-rule:evenodd;stroke:none"
         id="path3651" /><path
         d="M 792.094,1035.05 584.762,609.738"
         style="fill:none;stroke:#231f20;stroke-width:5;stroke-linecap:butt;stroke-linejoin:miter;stroke-miterlimit:10;stroke-dasharray:none;stroke-opacity:1"
         id="path3653" /><path
         d="m 580.191,634.395 -16.984,-72.477 46.633,58.023"
         style="fill:#231f20;fill-opacity:1;fill-rule:evenodd;stroke:none"
         id="path3655" /><path
         d="M 298.707,1037.55 506.039,612.238"
         style="fill:none;stroke:#231f20;stroke-width:5;stroke-linecap:butt;stroke-linejoin:miter;stroke-miterlimit:10;stroke-dasharray:none;stroke-opacity:1"
         id="path3657" /><path
         d="m 510.609,636.895 16.985,-72.477 -46.633,58.023"
         style="fill:#231f20;fill-opacity:1;fill-rule:evenodd;stroke:none"
         id="path3659" /><path
         d="m 365.215,674.715 c 0,60.066 -81.25,108.812 -181.36,108.812 C 83.75,783.527 2.5,734.781 2.5,674.715 c 0,-60.067 81.25,-108.817 181.355,-108.817 100.11,0 181.36,48.75 181.36,108.817 v 0"
         style="fill:#ffffff;fill-opacity:1;fill-rule:evenodd;stroke:none"
         id="path3661" /><path
         d="m 365.215,674.715 c 0,60.066 -81.25,108.812 -181.36,108.812 C 83.75,783.527 2.5,734.781 2.5,674.715 c 0,-60.067 81.25,-108.817 181.355,-108.817 100.11,0 181.36,48.75 181.36,108.817 z"
         style="fill:none;stroke:#231f20;stroke-width:5;stroke-linecap:butt;stroke-linejoin:miter;stroke-miterlimit:10;stroke-dasharray:none;stroke-opacity:1"
         id="path3663" /><g
         id="g3665"
         transform="scale(10)"><text
           transform="matrix(1,0,0,-1,4.37188,65.832)"
           style="font-style:italic;font-variant:normal;font-size:10.156px;font-family:'Times New Roman';-inkscape-font-specification:Times-Italic;writing-mode:lr-tb;fill:#231f20;fill-opacity:1;fill-rule:nonzero;stroke:none"
           id="text3669"><tspan
             x="0"
             y="0"
             id="tspan3667">H</tspan></text><text
           transform="matrix(1,0,0,-1,11.98946,62.94919)"
           style="font-style:italic;font-variant:normal;font-size:7.10921px;font-family:'Times New Roman';-inkscape-font-specification:Times-Italic;writing-mode:lr-tb;fill:#231f20;fill-opacity:1;fill-rule:nonzero;stroke:none"
           id="text3673"><tspan
             x="0 5.133791 8.6883965 10.663496 14.218102 17.373373"
             y="0"
             sodipodi:role="line"
             id="tspan3671">mother</tspan></text></g><path
         d="m 1061.21,674.715 c 0,60.066 -81.245,108.812 -181.362,108.812 -100.106,0 -181.348,-48.746 -181.348,-108.812 0,-60.067 81.242,-108.817 181.348,-108.817 100.117,0 181.362,48.75 181.362,108.817 v 0"
         style="fill:#ffffff;fill-opacity:1;fill-rule:evenodd;stroke:none"
         id="path3675" /><path
         d="m 1061.21,674.715 c 0,60.066 -81.245,108.812 -181.362,108.812 -100.106,0 -181.348,-48.746 -181.348,-108.812 0,-60.067 81.242,-108.817 181.348,-108.817 100.117,0 181.362,48.75 181.362,108.817 z"
         style="fill:none;stroke:#231f20;stroke-width:5;stroke-linecap:butt;stroke-linejoin:miter;stroke-miterlimit:10;stroke-dasharray:none;stroke-opacity:1"
         id="path3677" /><g
         id="g3679"
         transform="scale(10)"><text
           transform="matrix(1,0,0,-1,75.7859,66.082)"
           style="font-style:italic;font-variant:normal;font-size:10.156px;font-family:'Times New Roman';-inkscape-font-specification:Times-Italic;writing-mode:lr-tb;fill:#231f20;fill-opacity:1;fill-rule:nonzero;stroke:none"
           id="text3683"><tspan
             x="0"
             y="0"
             id="tspan3681">H</tspan></text><text
           transform="matrix(1,0,0,-1,83.39528,63.19919)"
           style="font-style:italic;font-variant:normal;font-size:7.10921px;font-family:'Times New Roman';-inkscape-font-specification:Times-Italic;writing-mode:lr-tb;fill:#231f20;fill-opacity:1;fill-rule:nonzero;stroke:none"
           id="text3687"><tspan
             x="0 1.9755913 5.5301962 7.5057878 11.060392 14.215668"
             y="0"
             sodipodi:role="line"
             id="tspan3685">father</tspan></text></g><path
         d="m 713.207,111.32 c 0,60.071 -81.25,108.817 -181.352,108.817 -100.109,0 -181.351,-48.746 -181.351,-108.817 0,-60.07 81.242,-108.82 181.351,-108.82 100.102,0 181.352,48.75 181.352,108.82 v 0"
         style="fill:#ffffff;fill-opacity:1;fill-rule:evenodd;stroke:none"
         id="path3689" /><path
         d="m 713.207,111.32 c 0,60.071 -81.25,108.817 -181.352,108.817 -100.109,0 -181.351,-48.746 -181.351,-108.817 0,-60.07 81.242,-108.82 181.351,-108.82 100.102,0 181.352,48.75 181.352,108.82 z"
         style="fill:none;stroke:#231f20;stroke-width:5;stroke-linecap:butt;stroke-linejoin:miter;stroke-miterlimit:10;stroke-dasharray:none;stroke-opacity:1"
         id="path3691" /><g
         id="g3693"
         transform="scale(10)"><text
           transform="matrix(1,0,0,-1,42.4895,8.99609)"
           style="font-style:italic;font-variant:normal;font-size:10.156px;font-family:'Times New Roman';-inkscape-font-specification:Times-Italic;writing-mode:lr-tb;fill:#231f20;fill-opacity:1;fill-rule:nonzero;stroke:none"
           id="text3697"><tspan
             x="0"
             y="0"
             id="tspan3695">H</tspan></text><text
           transform="matrix(1,0,0,-1,49.34848,6.85586)"
           style="font-style:italic;font-variant:normal;font-size:7.10921px;font-family:'Times New Roman';-inkscape-font-specification:Times-Italic;writing-mode:lr-tb;fill:#231f20;fill-opacity:1;fill-rule:nonzero;stroke:none"
           id="text3701"><tspan
             x="0 3.1564891 6.7110944 8.685935 10.661526"
             y="0"
             sodipodi:role="line"
             id="tspan3699">child</tspan></text></g><path
         d="m 365.215,1097.71 c 0,60.07 -81.25,108.82 -181.36,108.82 C 83.75,1206.53 2.5,1157.78 2.5,1097.71 c 0,-60.06 81.25,-108.812 181.355,-108.812 100.11,0 181.36,48.752 181.36,108.812 v 0"
         style="fill:#ffffff;fill-opacity:1;fill-rule:evenodd;stroke:none"
         id="path3703" /><path
         d="m 365.215,1097.71 c 0,60.07 -81.25,108.82 -181.36,108.82 C 83.75,1206.53 2.5,1157.78 2.5,1097.71 c 0,-60.06 81.25,-108.812 181.355,-108.812 100.11,0 181.36,48.752 181.36,108.812 z"
         style="fill:none;stroke:#231f20;stroke-width:5;stroke-linecap:butt;stroke-linejoin:miter;stroke-miterlimit:10;stroke-dasharray:none;stroke-opacity:1"
         id="path3705" /><g
         id="g3707"
         transform="scale(10)"><text
           transform="matrix(1,0,0,-1,11.9895,105.52)"
           style="font-style:italic;font-variant:normal;font-size:7.10921px;font-family:'Times New Roman';-inkscape-font-specification:Times-Italic;writing-mode:lr-tb;fill:#231f20;fill-opacity:1;fill-rule:nonzero;stroke:none"
           id="text3711"><tspan
             x="0 5.133791 8.6883965 10.663496 14.218102 17.373373"
             y="0"
             sodipodi:role="line"
             id="tspan3709">mother</tspan></text><text
           transform="matrix(1,0,0,-1,4.37192,108.395)"
           style="font-style:italic;font-variant:normal;font-size:10.156px;font-family:'Times New Roman';-inkscape-font-specification:Times-Italic;writing-mode:lr-tb;fill:#231f20;fill-opacity:1;fill-rule:nonzero;stroke:none"
           id="text3715"><tspan
             x="0"
             y="0"
             id="tspan3713">G</tspan></text></g><path
         d="m 1061.21,1097.71 c 0,60.07 -81.245,108.82 -181.362,108.82 -100.106,0 -181.348,-48.75 -181.348,-108.82 0,-60.06 81.242,-108.812 181.348,-108.812 100.117,0 181.362,48.752 181.362,108.812 v 0"
         style="fill:#ffffff;fill-opacity:1;fill-rule:evenodd;stroke:none"
         id="path3717" /><path
         d="m 1061.21,1097.71 c 0,60.07 -81.245,108.82 -181.362,108.82 -100.106,0 -181.348,-48.75 -181.348,-108.82 0,-60.06 81.242,-108.812 181.348,-108.812 100.117,0 181.362,48.752 181.362,108.812 z"
         style="fill:none;stroke:#231f20;stroke-width:5;stroke-linecap:butt;stroke-linejoin:miter;stroke-miterlimit:10;stroke-dasharray:none;stroke-opacity:1"
         id="path3719" /><g
         id="g3721"
         transform="scale(10)"><text
           transform="matrix(1,0,0,-1,82.8953,105.77)"
           style="font-style:italic;font-variant:normal;font-size:7.10921px;font-family:'Times New Roman';-inkscape-font-specification:Times-Italic;writing-mode:lr-tb;fill:#231f20;fill-opacity:1;fill-rule:nonzero;stroke:none"
           id="text3725"><tspan
             x="0 1.9755913 5.5301962 7.5057878 11.060392 14.215668"
             y="0"
             sodipodi:role="line"
             id="tspan3723">father</tspan></text><text
           transform="matrix(1,0,0,-1,75.28592,108.645)"
           style="font-style:italic;font-variant:normal;font-size:10.156px;font-family:'Times New Roman';-inkscape-font-specification:Times-Italic;writing-mode:lr-tb;fill:#231f20;fill-opacity:1;fill-rule:nonzero;stroke:none"
           id="text3729"><tspan
             x="0"
             y="0"
             id="tspan3727">G</tspan></text></g><path
         d="m 713.207,459.316 c 0,60.071 -81.25,108.821 -181.352,108.821 -100.109,0 -181.351,-48.75 -181.351,-108.821 0,-60.066 81.242,-108.808 181.351,-108.808 100.102,0 181.352,48.742 181.352,108.808 v 0"
         style="fill:#ffffff;fill-opacity:1;fill-rule:evenodd;stroke:none"
         id="path3731" /><path
         d="m 713.207,459.316 c 0,60.071 -81.25,108.821 -181.352,108.821 -100.109,0 -181.351,-48.75 -181.351,-108.821 0,-60.066 81.242,-108.808 181.351,-108.808 100.102,0 181.352,48.742 181.352,108.808 z"
         style="fill:none;stroke:#231f20;stroke-width:5;stroke-linecap:butt;stroke-linejoin:miter;stroke-miterlimit:10;stroke-dasharray:none;stroke-opacity:1"
         id="path3733" /><g
         id="g3735"
         transform="scale(10)"><text
           transform="matrix(1,0,0,-1,49.0984,42.184)"
           style="font-style:italic;font-variant:normal;font-size:7.10921px;font-family:'Times New Roman';-inkscape-font-specification:Times-Italic;writing-mode:lr-tb;fill:#231f20;fill-opacity:1;fill-rule:nonzero;stroke:none"
           id="text3739"><tspan
             x="0 3.1564891 6.7110944 8.685935 10.661526"
             y="0"
             sodipodi:role="line"
             id="tspan3737">child</tspan></text><text
           transform="matrix(1,0,0,-1,42.23942,43.81681)"
           style="font-style:italic;font-variant:normal;font-size:10.156px;font-family:'Times New Roman';-inkscape-font-specification:Times-Italic;writing-mode:lr-tb;fill:#231f20;fill-opacity:1;fill-rule:nonzero;stroke:none"
           id="text3743"><tspan
             x="0"
             y="0"
             id="tspan3741">G</tspan></text></g><path
         d="M 183.379,991.398 V 835.965"
         style="fill:none;stroke:#231f20;stroke-width:5;stroke-linecap:butt;stroke-linejoin:miter;stroke-miterlimit:10;stroke-dasharray:none;stroke-opacity:1"
         id="path3745" /><path
         d="m 198.297,856.109 -16.488,-72.582 -16.5,72.582"
         style="fill:#231f20;fill-opacity:1;fill-rule:evenodd;stroke:none"
         id="path3747" /><path
         d="M 881.43,988.898 V 833.461"
         style="fill:none;stroke:#231f20;stroke-width:5;stroke-linecap:butt;stroke-linejoin:miter;stroke-miterlimit:10;stroke-dasharray:none;stroke-opacity:1"
         id="path3749" /><path
         d="m 896.344,853.613 -16.496,-72.586 -16.493,72.586"
         style="fill:#231f20;fill-opacity:1;fill-rule:evenodd;stroke:none"
         id="path3751" /></g><g
       id="g3875"
       transform="matrix(0.1,0,0,0.1,-225.00001,-0.00299698)"><path
         d="M 537.953,420.852 V 265.41"
         style="fill:none;stroke:#231f20;stroke-width:5;stroke-linecap:butt;stroke-linejoin:miter;stroke-miterlimit:10;stroke-dasharray:none;stroke-opacity:1"
         id="path3877" /><path
         d="M 552.867,285.566 536.371,212.98 519.879,285.566"
         style="fill:#231f20;fill-opacity:1;fill-rule:evenodd;stroke:none"
         id="path3879" /><path
         d="M 792.094,1035.05 584.762,609.738"
         style="fill:none;stroke:#231f20;stroke-width:5;stroke-linecap:butt;stroke-linejoin:miter;stroke-miterlimit:10;stroke-dasharray:none;stroke-opacity:1"
         id="path3881" /><path
         d="m 580.191,634.395 -16.984,-72.477 46.633,58.023"
         style="fill:#231f20;fill-opacity:1;fill-rule:evenodd;stroke:none"
         id="path3883" /><path
         d="M 298.707,1037.55 506.039,612.238"
         style="fill:none;stroke:#231f20;stroke-width:5;stroke-linecap:butt;stroke-linejoin:miter;stroke-miterlimit:10;stroke-dasharray:none;stroke-opacity:1"
         id="path3885" /><path
         d="m 510.609,636.895 16.985,-72.477 -46.633,58.023"
         style="fill:#231f20;fill-opacity:1;fill-rule:evenodd;stroke:none"
         id="path3887" /><path
         d="m 365.215,674.715 c 0,60.066 -81.25,108.812 -181.36,108.812 C 83.75,783.527 2.5,734.781 2.5,674.715 c 0,-60.067 81.25,-108.817 181.355,-108.817 100.11,0 181.36,48.75 181.36,108.817 v 0"
         style="fill:#ffffff;fill-opacity:1;fill-rule:evenodd;stroke:none"
         id="path3889" /><path
         d="m 365.215,674.715 c 0,60.066 -81.25,108.812 -181.36,108.812 C 83.75,783.527 2.5,734.781 2.5,674.715 c 0,-60.067 81.25,-108.817 181.355,-108.817 100.11,0 181.36,48.75 181.36,108.817 z"
         style="fill:none;stroke:#231f20;stroke-width:5;stroke-linecap:butt;stroke-linejoin:miter;stroke-miterlimit:10;stroke-dasharray:none;stroke-opacity:1"
         id="path3891" /><g
         id="g3893"
         transform="scale(10)"><text
           transform="matrix(1,0,0,-1,4.37188,65.832)"
           style="font-style:italic;font-variant:normal;font-size:10.156px;font-family:'Times New Roman';-inkscape-font-specification:Times-Italic;writing-mode:lr-tb;fill:#231f20;fill-opacity:1;fill-rule:nonzero;stroke:none"
           id="text3897"><tspan
             x="0"
             y="0"
             id="tspan3895">H</tspan></text><text
           transform="matrix(1,0,0,-1,11.98946,62.94919)"
           style="font-style:italic;font-variant:normal;font-size:7.10921px;font-family:'Times New Roman';-inkscape-font-specification:Times-Italic;writing-mode:lr-tb;fill:#231f20;fill-opacity:1;fill-rule:nonzero;stroke:none"
           id="text3901"><tspan
             x="0 5.133791 8.6883965 10.663496 14.218102 17.373373"
             y="0"
             sodipodi:role="line"
             id="tspan3899">mother</tspan></text></g><path
         d="m 1061.21,674.715 c 0,60.066 -81.245,108.812 -181.362,108.812 -100.106,0 -181.348,-48.746 -181.348,-108.812 0,-60.067 81.242,-108.817 181.348,-108.817 100.117,0 181.362,48.75 181.362,108.817 v 0"
         style="fill:#ffffff;fill-opacity:1;fill-rule:evenodd;stroke:none"
         id="path3903" /><path
         d="m 1061.21,674.715 c 0,60.066 -81.245,108.812 -181.362,108.812 -100.106,0 -181.348,-48.746 -181.348,-108.812 0,-60.067 81.242,-108.817 181.348,-108.817 100.117,0 181.362,48.75 181.362,108.817 z"
         style="fill:none;stroke:#231f20;stroke-width:5;stroke-linecap:butt;stroke-linejoin:miter;stroke-miterlimit:10;stroke-dasharray:none;stroke-opacity:1"
         id="path3905" /><g
         id="g3907"
         transform="scale(10)"><text
           transform="matrix(1,0,0,-1,75.7859,66.082)"
           style="font-style:italic;font-variant:normal;font-size:10.156px;font-family:'Times New Roman';-inkscape-font-specification:Times-Italic;writing-mode:lr-tb;fill:#231f20;fill-opacity:1;fill-rule:nonzero;stroke:none"
           id="text3911"><tspan
             x="0"
             y="0"
             id="tspan3909">H</tspan></text><text
           transform="matrix(1,0,0,-1,83.39528,63.19919)"
           style="font-style:italic;font-variant:normal;font-size:7.10921px;font-family:'Times New Roman';-inkscape-font-specification:Times-Italic;writing-mode:lr-tb;fill:#231f20;fill-opacity:1;fill-rule:nonzero;stroke:none"
           id="text3915"><tspan
             x="0 1.9755913 5.5301962 7.5057878 11.060392 14.215668"
             y="0"
             sodipodi:role="line"
             id="tspan3913">father</tspan></text></g><path
         d="m 713.207,111.32 c 0,60.071 -81.25,108.817 -181.352,108.817 -100.109,0 -181.351,-48.746 -181.351,-108.817 0,-60.07 81.242,-108.82 181.351,-108.82 100.102,0 181.352,48.75 181.352,108.82 v 0"
         style="fill:#ffffff;fill-opacity:1;fill-rule:evenodd;stroke:none"
         id="path3917" /><path
         d="m 713.207,111.32 c 0,60.071 -81.25,108.817 -181.352,108.817 -100.109,0 -181.351,-48.746 -181.351,-108.817 0,-60.07 81.242,-108.82 181.351,-108.82 100.102,0 181.352,48.75 181.352,108.82 z"
         style="fill:none;stroke:#231f20;stroke-width:5;stroke-linecap:butt;stroke-linejoin:miter;stroke-miterlimit:10;stroke-dasharray:none;stroke-opacity:1"
         id="path3919" /><g
         id="g3921"
         transform="scale(10)"><text
           transform="matrix(1,0,0,-1,42.4895,8.99609)"
           style="font-style:italic;font-variant:normal;font-size:10.156px;font-family:'Times New Roman';-inkscape-font-specification:Times-Italic;writing-mode:lr-tb;fill:#231f20;fill-opacity:1;fill-rule:nonzero;stroke:none"
           id="text3925"><tspan
             x="0"
             y="0"
             id="tspan3923">H</tspan></text><text
           transform="matrix(1,0,0,-1,49.34848,6.85586)"
           style="font-style:italic;font-variant:normal;font-size:7.10921px;font-family:'Times New Roman';-inkscape-font-specification:Times-Italic;writing-mode:lr-tb;fill:#231f20;fill-opacity:1;fill-rule:nonzero;stroke:none"
           id="text3929"><tspan
             x="0 3.1564891 6.7110944 8.685935 10.661526"
             y="0"
             sodipodi:role="line"
             id="tspan3927">child</tspan></text></g><path
         d="m 365.215,1097.71 c 0,60.07 -81.25,108.82 -181.36,108.82 C 83.75,1206.53 2.5,1157.78 2.5,1097.71 c 0,-60.06 81.25,-108.812 181.355,-108.812 100.11,0 181.36,48.752 181.36,108.812 v 0"
         style="fill:#ffffff;fill-opacity:1;fill-rule:evenodd;stroke:none"
         id="path3931" /><path
         d="m 365.215,1097.71 c 0,60.07 -81.25,108.82 -181.36,108.82 C 83.75,1206.53 2.5,1157.78 2.5,1097.71 c 0,-60.06 81.25,-108.812 181.355,-108.812 100.11,0 181.36,48.752 181.36,108.812 z"
         style="fill:none;stroke:#231f20;stroke-width:5;stroke-linecap:butt;stroke-linejoin:miter;stroke-miterlimit:10;stroke-dasharray:none;stroke-opacity:1"
         id="path3933" /><g
         id="g3935"
         transform="scale(10)"><text
           transform="matrix(1,0,0,-1,11.9895,105.52)"
           style="font-style:italic;font-variant:normal;font-size:7.10921px;font-family:'Times New Roman';-inkscape-font-specification:Times-Italic;writing-mode:lr-tb;fill:#231f20;fill-opacity:1;fill-rule:nonzero;stroke:none"
           id="text3939"><tspan
             x="0 5.133791 8.6883965 10.663496 14.218102 17.373373"
             y="0"
             sodipodi:role="line"
             id="tspan3937">mother</tspan></text><text
           transform="matrix(1,0,0,-1,4.37192,108.395)"
           style="font-style:italic;font-variant:normal;font-size:10.156px;font-family:'Times New Roman';-inkscape-font-specification:Times-Italic;writing-mode:lr-tb;fill:#231f20;fill-opacity:1;fill-rule:nonzero;stroke:none"
           id="text3943"><tspan
             x="0"
             y="0"
             id="tspan3941">G</tspan></text></g><path
         d="m 1061.21,1097.71 c 0,60.07 -81.245,108.82 -181.362,108.82 -100.106,0 -181.348,-48.75 -181.348,-108.82 0,-60.06 81.242,-108.812 181.348,-108.812 100.117,0 181.362,48.752 181.362,108.812 v 0"
         style="fill:#ffffff;fill-opacity:1;fill-rule:evenodd;stroke:none"
         id="path3945" /><path
         d="m 1061.21,1097.71 c 0,60.07 -81.245,108.82 -181.362,108.82 -100.106,0 -181.348,-48.75 -181.348,-108.82 0,-60.06 81.242,-108.812 181.348,-108.812 100.117,0 181.362,48.752 181.362,108.812 z"
         style="fill:none;stroke:#231f20;stroke-width:5;stroke-linecap:butt;stroke-linejoin:miter;stroke-miterlimit:10;stroke-dasharray:none;stroke-opacity:1"
         id="path3947" /><g
         id="g3949"
         transform="scale(10)"><text
           transform="matrix(1,0,0,-1,82.8953,105.77)"
           style="font-style:italic;font-variant:normal;font-size:7.10921px;font-family:'Times New Roman';-inkscape-font-specification:Times-Italic;writing-mode:lr-tb;fill:#231f20;fill-opacity:1;fill-rule:nonzero;stroke:none"
           id="text3953"><tspan
             x="0 1.9755913 5.5301962 7.5057878 11.060392 14.215668"
             y="0"
             sodipodi:role="line"
             id="tspan3951">father</tspan></text><text
           transform="matrix(1,0,0,-1,75.28592,108.645)"
           style="font-style:italic;font-variant:normal;font-size:10.156px;font-family:'Times New Roman';-inkscape-font-specification:Times-Italic;writing-mode:lr-tb;fill:#231f20;fill-opacity:1;fill-rule:nonzero;stroke:none"
           id="text3957"><tspan
             x="0"
             y="0"
             id="tspan3955">G</tspan></text></g><path
         d="m 713.207,459.316 c 0,60.071 -81.25,108.821 -181.352,108.821 -100.109,0 -181.351,-48.75 -181.351,-108.821 0,-60.066 81.242,-108.808 181.351,-108.808 100.102,0 181.352,48.742 181.352,108.808 v 0"
         style="fill:#ffffff;fill-opacity:1;fill-rule:evenodd;stroke:none"
         id="path3959" /><path
         d="m 713.207,459.316 c 0,60.071 -81.25,108.821 -181.352,108.821 -100.109,0 -181.351,-48.75 -181.351,-108.821 0,-60.066 81.242,-108.808 181.351,-108.808 100.102,0 181.352,48.742 181.352,108.808 z"
         style="fill:none;stroke:#231f20;stroke-width:5;stroke-linecap:butt;stroke-linejoin:miter;stroke-miterlimit:10;stroke-dasharray:none;stroke-opacity:1"
         id="path3961" /><g
         id="g3963"
         transform="scale(10)"><text
           transform="matrix(1,0,0,-1,49.0984,42.184)"
           style="font-style:italic;font-variant:normal;font-size:7.10921px;font-family:'Times New Roman';-inkscape-font-specification:Times-Italic;writing-mode:lr-tb;fill:#231f20;fill-opacity:1;fill-rule:nonzero;stroke:none"
           id="text3967"><tspan
             x="0 3.1564891 6.7110944 8.685935 10.661526"
             y="0"
             sodipodi:role="line"
             id="tspan3965">child</tspan></text><text
           transform="matrix(1,0,0,-1,42.23942,43.81681)"
           style="font-style:italic;font-variant:normal;font-size:10.156px;font-family:'Times New Roman';-inkscape-font-specification:Times-Italic;writing-mode:lr-tb;fill:#231f20;fill-opacity:1;fill-rule:nonzero;stroke:none"
           id="text3971"><tspan
             x="0"
             y="0"
             id="tspan3969">G</tspan></text></g><path
         d="M 183.379,991.398 V 835.965"
         style="fill:none;stroke:#231f20;stroke-width:5;stroke-linecap:butt;stroke-linejoin:miter;stroke-miterlimit:10;stroke-dasharray:none;stroke-opacity:1"
         id="path3973" /><path
         d="m 198.297,856.109 -16.488,-72.582 -16.5,72.582"
         style="fill:#231f20;fill-opacity:1;fill-rule:evenodd;stroke:none"
         id="path3975" /><path
         d="M 881.43,988.898 V 833.461"
         style="fill:none;stroke:#231f20;stroke-width:5;stroke-linecap:butt;stroke-linejoin:miter;stroke-miterlimit:10;stroke-dasharray:none;stroke-opacity:1"
         id="path3977" /><path
         d="m 896.344,853.613 -16.496,-72.586 -16.493,72.586"
         style="fill:#231f20;fill-opacity:1;fill-rule:evenodd;stroke:none"
         id="path3979" /></g></g></svg>
